<?xml version="1.0" encoding="UTF-8"?>
<svg width="42px" height="47px" viewBox="0 0 42 47" version="1.1" xmlns="http://www.w3.org/2000/svg" xmlns:xlink="http://www.w3.org/1999/xlink">
    <!-- Generator: Sketch 50 (54983) - http://www.bohemiancoding.com/sketch -->
    <title>BIM</title>
    <desc>Created with Sketch.</desc>
    <defs></defs>
    <g id="Page-1" stroke="none" stroke-width="1" fill="none" fill-rule="evenodd">
        <g id="官网首页" transform="translate(-817.000000, -3641.000000)" fill-rule="nonzero">
            <g id="5" transform="translate(0.000000, 3051.000000)">
                <g id="四块" transform="translate(360.000000, 539.000000)">
                    <g id="2" transform="translate(405.000000, 0.000000)">
                        <g id="BIM" transform="translate(52.000000, 51.000000)">
                            <path d="M40.1935484,0 L1.80645161,0 C0.677419355,0 0,0.719387755 0,1.67857143 L0,35.25 C0,36.2091837 0.677419355,37.1683673 1.80645161,37.1683673 L15.8064516,37.1683673 L15.8064516,43.1632653 L9.48387097,43.1632653 C8.58064516,43.1632653 7.67741935,43.8826531 7.67741935,45.0816327 C7.67741935,46.2806122 8.35483871,47 9.48387097,47 L32.516129,47 C33.4193548,47 34.3225806,46.2806122 34.3225806,45.0816327 C34.3225806,43.8826531 33.6451613,43.1632653 32.516129,43.1632653 L26.1935484,43.1632653 L26.1935484,37.1683673 L40.1935484,37.1683673 C41.0967742,37.1683673 42,36.4489796 42,35.25 L42,1.67857143 C42,0.719387755 41.3225806,0 40.1935484,0 Z M22.8064516,42.9234694 L19.1935484,42.9234694 L19.1935484,36.9285714 L22.8064516,36.9285714 L22.8064516,42.9234694 Z M38.6129032,33.3316327 L3.38709677,33.3316327 L3.38709677,3.59693878 L38.6129032,3.59693878 L38.6129032,33.3316327 Z" id="Shape" fill="#89E5B9"></path>
                            <path d="M14.9672131,24.2941176 C15.852459,23.8235294 16.0737705,22.8823529 16.0737705,21.7058824 C16.0737705,20.7647059 16.0737705,20.0588235 15.6311475,19.5882353 C15.1885246,19.1176471 14.7459016,18.8823529 13.8606557,18.6470588 C14.5245902,18.4117647 14.9672131,18.1764706 15.1885246,17.7058824 C15.4098361,17.2352941 15.6311475,16.7647059 15.6311475,16.0588235 C15.6311475,15.1176471 15.4098361,14.4117647 14.7459016,13.9411765 C14.0819672,13.2352941 13.1967213,13 12.0901639,13 L7,13 L7,25 L12.0901639,25 C13.4180328,25 14.3032787,24.7647059 14.9672131,24.2941176 Z M8.7704918,14.4117647 L11.647541,14.4117647 C12.5327869,14.4117647 12.9754098,14.6470588 13.4180328,14.8823529 C13.8606557,15.1176471 13.8606557,15.5882353 13.8606557,16.2941176 C13.8606557,16.7647059 13.8606557,17.2352941 13.4180328,17.7058824 C12.9754098,17.9411765 12.5327869,17.9411765 11.647541,17.9411765 L8.7704918,17.9411765 L8.7704918,14.4117647 Z M8.7704918,23.5882353 L8.7704918,19.5882353 L12.0901639,19.5882353 C12.9754098,19.5882353 13.6393443,19.8235294 13.8606557,20.0588235 C14.3032787,20.2941176 14.5245902,21 14.5245902,21.7058824 C14.5245902,22.4117647 14.3032787,22.8823529 13.6393443,23.1176471 C13.1967213,23.3529412 12.5327869,23.5882353 11.8688525,23.5882353 L8.7704918,23.5882353 Z M18.0655738,13 L19.8360656,13 L19.8360656,25 L18.0655738,25 L18.0655738,13 Z M23.5983607,16.2941176 L23.8196721,16.2941176 L27.1393443,25 L28.6885246,25 L32.2295082,16.2941176 L32.2295082,25 L34,25 L34,13 L32.0081967,13 L28.0245902,22.6470588 L24.0409836,13 L22.0491803,13 L22.0491803,25 L23.5983607,25 L23.5983607,16.2941176 Z" id="Shape" fill="#32C27D"></path>
                        </g>
                    </g>
                </g>
            </g>
        </g>
    </g>
</svg>