<?xml version="1.0" encoding="UTF-8"?>
<svg width="16px" height="16px" viewBox="0 0 16 16" version="1.1" xmlns="http://www.w3.org/2000/svg" xmlns:xlink="http://www.w3.org/1999/xlink">
    <!-- Generator: Sketch 50 (54983) - http://www.bohemiancoding.com/sketch -->
    <title>BIM</title>
    <desc>Created with Sketch.</desc>
    <defs></defs>
    <g id="PC端页面" stroke="none" stroke-width="1" fill="none" fill-rule="evenodd">
        <g id="资料管理-文件-缩略" transform="translate(-340.000000, -168.000000)" fill="#409EFF">
            <g id="侧边栏" transform="translate(340.000000, 97.000000)">
                <g id="BIM" transform="translate(0.000000, 71.000000)">
                    <rect id="Rectangle-18" x="0" y="15" width="16" height="1" rx="0.5"></rect>
                    <path d="M3,0 L8,0 C9.1045695,-2.02906125e-16 10,0.8954305 10,2 L10,16 L1,16 L1,2 C1,0.8954305 1.8954305,2.02906125e-16 3,0 Z M3.5,4 C3.22385763,4 3,4.22385763 3,4.5 C3,4.77614237 3.22385763,5 3.5,5 L7.5,5 C7.77614237,5 8,4.77614237 8,4.5 C8,4.22385763 7.77614237,4 7.5,4 L3.5,4 Z M3.5,8 C3.22385763,8 3,8.22385763 3,8.5 C3,8.77614237 3.22385763,9 3.5,9 L7.5,9 C7.77614237,9 8,8.77614237 8,8.5 C8,8.22385763 7.77614237,8 7.5,8 L3.5,8 Z M3.5,12 C3.22385763,12 3,12.2238576 3,12.5 C3,12.7761424 3.22385763,13 3.5,13 L7.5,13 C7.77614237,13 8,12.7761424 8,12.5 C8,12.2238576 7.77614237,12 7.5,12 L3.5,12 Z" id="Combined-Shape"></path>
                    <path d="M10,4 L13,4 C14.1045695,4 15,4.8954305 15,6 L15,16 L8,16 L8,6 C8,4.8954305 8.8954305,4 10,4 Z M11.5,8 C11.2238576,8 11,8.22385763 11,8.5 C11,8.77614237 11.2238576,9 11.5,9 L12.5,9 C12.7761424,9 13,8.77614237 13,8.5 C13,8.22385763 12.7761424,8 12.5,8 L11.5,8 Z M11.5,11 C11.2238576,11 11,11.2238576 11,11.5 C11,11.7761424 11.2238576,12 11.5,12 L12.5,12 C12.7761424,12 13,11.7761424 13,11.5 C13,11.2238576 12.7761424,11 12.5,11 L11.5,11 Z" id="Combined-Shape"></path>
                </g>
            </g>
        </g>
    </g>
</svg>