<svg id="图层_1" data-name="图层 1" xmlns="http://www.w3.org/2000/svg" viewBox="0 0 44 50"><defs><style>.cls-1{fill:#4971c2;}.cls-2,.cls-3{fill:#fff;}.cls-2{opacity:0.5;}</style></defs><title>图标</title><path class="cls-1" d="M31.79,4.83H6.68A2.85,2.85,0,0,0,3.84,7.66V44.07A2.84,2.84,0,0,0,6.68,46.9h31a2.84,2.84,0,0,0,2.84-2.83V14Z"/><path class="cls-2" d="M31.79,4.83v6.34A2.84,2.84,0,0,0,34.62,14h5.94"/><path class="cls-3" d="M25.24,15.32H12.74V36.41H31.66V22.07Zm.25,2.44,4,4.23h-4ZM14.24,34.91V16.82H24v6.67h6.17V34.91Z"/><rect class="cls-3" x="21.91" y="27.14" width="8.42" height="1.5"/><rect class="cls-3" x="12.94" y="27.14" width="4.38" height="1.5"/><rect class="cls-3" x="18.76" y="15.8" width="1.5" height="10.06"/><rect class="cls-3" x="18.76" y="30.65" width="1.5" height="5.25"/><path class="cls-3" d="M20.85,26.92v2.51H18.34V26.92h2.51m1.34-1.34H17v5.19h5.19V25.58Z"/></svg>