<svg id="图层_1" data-name="图层 1" xmlns="http://www.w3.org/2000/svg" viewBox="0 0 40.17 43.83"><defs><style>.cls-1{fill:#63c422;}.cls-2,.cls-3{fill:#fff;}.cls-2{opacity:0.5;}</style></defs><title>图标</title><path class="cls-1" d="M29.73,1.1H4.62A2.84,2.84,0,0,0,1.78,3.93v36.4a2.85,2.85,0,0,0,2.84,2.84H35.67a2.85,2.85,0,0,0,2.83-2.84V10.27Z"/><path class="cls-2" d="M29.73,1.1V7.44a2.83,2.83,0,0,0,2.83,2.83H38.5"/><path class="cls-3" d="M21.67,22.13l4.09-5.83a1.25,1.25,0,0,0-2.05-1.44L20.14,20l-3.56-5.09a1.25,1.25,0,0,0-2,1.43l4.09,5.84L14.53,28a1.25,1.25,0,1,0,2,1.43l3.57-5.09L23.7,29.4A1.25,1.25,0,1,0,25.75,28Z"/></svg>