<svg id="图层_1" data-name="图层 1" xmlns="http://www.w3.org/2000/svg" viewBox="0 0 44 50"><defs><style>.cls-1{fill:#61caff;}.cls-2,.cls-3{fill:#fff;}.cls-2{opacity:0.5;}</style></defs><title>图标</title><path class="cls-1" d="M31.79,4.83H6.68A2.85,2.85,0,0,0,3.84,7.66V44.07A2.84,2.84,0,0,0,6.68,46.9h31a2.84,2.84,0,0,0,2.84-2.83V14Z"/><path class="cls-2" d="M31.79,4.83v6.34A2.84,2.84,0,0,0,34.62,14h5.94"/><path class="cls-3" d="M25.24,15.32H12.74V36.41H31.66V22.07Zm.25,2.44,4,4.23h-4ZM14.24,34.91V16.82H24v6.67h6.17V34.91Z"/><rect class="cls-3" x="16.76" y="25.7" width="10.88" height="1.5"/><rect class="cls-3" x="16.76" y="30.37" width="10.88" height="1.5"/></svg>