<svg id="图层_1" data-name="图层 1" xmlns="http://www.w3.org/2000/svg" viewBox="0 0 42.33 47.17"><defs><style>.cls-1{fill:#ff5a5a;}.cls-2,.cls-3{fill:#fff;}.cls-2{opacity:0.5;}</style></defs><title>图标</title><path class="cls-1" d="M31.26,2.35H6.15A2.84,2.84,0,0,0,3.31,5.18v36.4a2.85,2.85,0,0,0,2.84,2.84H37.2A2.85,2.85,0,0,0,40,41.58V11.52Z"/><path class="cls-2" d="M31.26,2.35V8.69a2.83,2.83,0,0,0,2.83,2.83H40"/><path class="cls-3" d="M28.08,24.32a17.2,17.2,0,0,0-3.18.35,15.33,15.33,0,0,1-3.13-4c.86-2.83.91-4.74.25-5.65a1.64,1.64,0,0,0-1.31-.66,1.6,1.6,0,0,0-1.56.81c-.91,1.51.4,4.49,1,5.7a35.87,35.87,0,0,1-2.68,6.25c-4.79,2.07-4.89,3.33-4.89,3.79a1.48,1.48,0,0,0,.86,1.36,1.3,1.3,0,0,0,.75.2c1.27,0,2.73-1.41,4.29-4.19a36.7,36.7,0,0,1,6-1.91,6.48,6.48,0,0,0,3.74,1.51c.85,0,2.52,0,2.52-1.72C30.8,25.48,30.45,24.37,28.08,24.32ZM14.25,30.93,14.1,31a4,4,0,0,1,1.82-1.47A3.26,3.26,0,0,1,14.25,30.93Zm6.21-15a.32.32,0,0,1,.2-.1l.15,0a4.3,4.3,0,0,1,0,2.63A4.15,4.15,0,0,1,20.46,15.9Zm2.62,9.78a29.64,29.64,0,0,0-3.43,1l-.16.06.06-.11c.56-1.11,1.06-2.27,1.51-3.43l.06-.14.05.09a15.53,15.53,0,0,0,2,2.47l0,0Zm5.15.66a4.31,4.31,0,0,1-1.52-.41,5.83,5.83,0,0,1,1.31-.1c1,0,1.22.25,1.22.41A2.27,2.27,0,0,1,28.23,26.34Z"/></svg>