<svg id="图层_1" data-name="图层 1" xmlns="http://www.w3.org/2000/svg" viewBox="0 0 43.83 47.67"><defs><style>.cls-1{fill:#ff9743;}.cls-2,.cls-3{fill:#fff;}.cls-2{opacity:0.5;}</style></defs><title>图标</title><path class="cls-1" d="M31.9,2H6.79A2.85,2.85,0,0,0,4,4.84v36.4a2.84,2.84,0,0,0,2.84,2.83h31a2.84,2.84,0,0,0,2.84-2.83V11.18Z"/><path class="cls-2" d="M31.9,2V8.34a2.84,2.84,0,0,0,2.83,2.84h5.94"/><path class="cls-3" d="M24.34,13.8H15.15v18.5h2.5v-7h6.69a5.14,5.14,0,0,0,5.13-5.14V18.94A5.14,5.14,0,0,0,24.34,13.8Zm2.83,6.38A2.83,2.83,0,0,1,24.34,23H17.65V16.1h6.69a2.83,2.83,0,0,1,2.83,2.84Z"/></svg>