<?xml version="1.0" standalone="no"?><!DOCTYPE svg PUBLIC "-//W3C//DTD SVG 1.1//EN" "http://www.w3.org/Graphics/SVG/1.1/DTD/svg11.dtd"><svg t="1520843667976" class="icon" style="" viewBox="0 0 1024 1024" version="1.1" xmlns="http://www.w3.org/2000/svg" p-id="4757" xmlns:xlink="http://www.w3.org/1999/xlink" width="32" height="32"><defs><style type="text/css"></style></defs><path d="M938.666667 981.333333 85.333333 981.333333C61.76 981.333333 42.666667 962.218667 42.666667 938.666667L42.666667 85.333333C42.666667 61.76 61.76 42.666667 85.333333 42.666667L938.666667 42.666667C962.218667 42.666667 981.333333 61.76 981.333333 85.333333L981.333333 938.666667C981.333333 962.218667 962.218667 981.333333 938.666667 981.333333ZM896 170.666667C896 147.093333 876.885333 128 853.333333 128L170.666667 128C147.093333 128 128 147.093333 128 170.666667L128 298.666667 896 298.666667 896 170.666667ZM896 384 128 384 128 853.333333C128 876.885333 147.093333 896 170.666667 896L853.333333 896C876.885333 896 896 876.885333 896 853.333333L896 384ZM554.666667 661.333333 853.333333 661.333333 853.333333 874.666667 554.666667 874.666667 554.666667 661.333333ZM554.666667 405.333333 853.333333 405.333333 853.333333 618.666667 554.666667 618.666667 554.666667 405.333333ZM170.666667 661.333333 469.333333 661.333333 469.333333 874.666667 170.666667 874.666667 170.666667 661.333333ZM170.666667 405.333333 469.333333 405.333333 469.333333 618.666667 170.666667 618.666667 170.666667 405.333333ZM554.666667 170.666667C578.218667 170.666667 597.333333 189.76 597.333333 213.333333 597.333333 236.885333 578.218667 256 554.666667 256 531.093333 256 512 236.885333 512 213.333333 512 189.76 531.093333 170.666667 554.666667 170.666667ZM682.666667 170.666667C706.218667 170.666667 725.333333 189.76 725.333333 213.333333 725.333333 236.885333 706.218667 256 682.666667 256 659.093333 256 640 236.885333 640 213.333333 640 189.76 659.093333 170.666667 682.666667 170.666667ZM810.666667 170.666667C834.218667 170.666667 853.333333 189.76 853.333333 213.333333 853.333333 236.885333 834.218667 256 810.666667 256 787.093333 256 768 236.885333 768 213.333333 768 189.76 787.093333 170.666667 810.666667 170.666667Z" p-id="4758"></path></svg>