<?xml version="1.0" standalone="no"?><!DOCTYPE svg PUBLIC "-//W3C//DTD SVG 1.1//EN" "http://www.w3.org/Graphics/SVG/1.1/DTD/svg11.dtd"><svg t="1520843737252" class="icon" style="" viewBox="0 0 1024 1024" version="1.1" xmlns="http://www.w3.org/2000/svg" p-id="6230" xmlns:xlink="http://www.w3.org/1999/xlink" width="32" height="32"><defs><style type="text/css"></style></defs><path d="M511.107 0.075c-281.988 0-510.589 228.602-510.589 510.596 0 281.988 228.602 510.589 510.589 510.589 281.995 0 510.596-228.602 510.596-510.589 0-281.995-228.602-510.596-510.596-510.596zM764.611 764.167c-5.854 5.854-13.526 8.782-21.191 8.782-7.673 0-15.344-2.928-21.197-8.782l-241.081-241.087v-304.886c0-16.564 13.429-29.979 29.971-29.979 16.549 0 29.979 13.415 29.979 29.979v280.066l223.519 223.519c11.707 11.694 11.707 30.687 0 42.389z" p-id="6231"></path></svg>