<svg id="图层_1" data-name="图层 1" xmlns="http://www.w3.org/2000/svg" viewBox="0 0 40 46.17"><defs><style>.cls-1{fill:#bb43ed;}.cls-2,.cls-3{fill:#fff;}.cls-2{opacity:0.5;}</style></defs><title>图标</title><path class="cls-1" d="M29.57,2.63H4.46A2.85,2.85,0,0,0,1.62,5.47v36.4A2.84,2.84,0,0,0,4.46,44.7h31a2.84,2.84,0,0,0,2.84-2.83V11.81Z"/><path class="cls-2" d="M29.57,2.63V9a2.84,2.84,0,0,0,2.83,2.84h5.94"/><path class="cls-3" d="M20.2,33.13a9.41,9.41,0,1,1,9.41-9.4A9.41,9.41,0,0,1,20.2,33.13Zm0-17a7.61,7.61,0,1,0,7.61,7.61A7.61,7.61,0,0,0,20.2,16.12Z"/><path class="cls-3" d="M24.9,23.23l-6.82-3.94a.57.57,0,0,0-.85.5v7.87a.57.57,0,0,0,.85.5l6.82-3.94A.57.57,0,0,0,24.9,23.23Z"/></svg>