<svg id="图层_1" data-name="图层 1" xmlns="http://www.w3.org/2000/svg" viewBox="0 0 43 46.5"><defs><style>.cls-1{fill:#4d97ff;}.cls-2,.cls-3{fill:#fff;}.cls-2{opacity:0.5;}</style></defs><title>图标</title><path class="cls-1" d="M31.31,2.42H6.2A2.84,2.84,0,0,0,3.37,5.26v36.4A2.84,2.84,0,0,0,6.2,44.5H37.25a2.84,2.84,0,0,0,2.83-2.84V11.6Z"/><path class="cls-2" d="M31.31,2.42V8.77a2.84,2.84,0,0,0,2.84,2.83h5.93"/><path class="cls-3" d="M29.92,15.72a1.2,1.2,0,0,0-1.45.77L25.67,26l-2.79-9.5a1,1,0,0,0-.1-.18l-.06-.11a.88.88,0,0,0-.21-.22l-.1-.08a1.08,1.08,0,0,0-.29-.13s-.06,0-.09,0H22a1,1,0,0,0-.3,0h-.26a1.11,1.11,0,0,0-.16.07,1.63,1.63,0,0,0-.19.09l-.16.13a.91.91,0,0,0-.17.17,1.09,1.09,0,0,0-.08.15,1.29,1.29,0,0,0-.09.16L17.78,26,15,16.49a1.2,1.2,0,0,0-1.45-.76,1.08,1.08,0,0,0-.85,1.32l3.94,13.4a1,1,0,0,0,.1.17.54.54,0,0,0,.07.13A.86.86,0,0,0,17,31l.14.11a1.33,1.33,0,0,0,.24.1.67.67,0,0,0,.12.06.16.16,0,0,0,.07,0,1,1,0,0,0,.24,0,.86.86,0,0,0,.23,0s0,0,.07,0a.75.75,0,0,0,.13-.06l.23-.1.14-.11a1.21,1.21,0,0,0,.19-.2s0-.08.07-.13a.91.91,0,0,0,.09-.17L21.72,21l2.8,9.5a1.4,1.4,0,0,0,.09.17.83.83,0,0,0,.07.13,1.7,1.7,0,0,0,.19.19.69.69,0,0,0,.13.11,1.28,1.28,0,0,0,.24.11l.13.06H26l.12-.06a1.28,1.28,0,0,0,.24-.11.69.69,0,0,0,.13-.11,1.14,1.14,0,0,0,.19-.19.83.83,0,0,0,.07-.13.7.7,0,0,0,.09-.17l3.94-13.4A1.08,1.08,0,0,0,29.92,15.72Z"/></svg>