<svg id="图层_1" data-name="图层 1" xmlns="http://www.w3.org/2000/svg" viewBox="0 0 44 50"><defs><style>.cls-1{fill:#606060;}.cls-2,.cls-7{fill:#fff;}.cls-2{opacity:0.5;}.cls-3{fill:#55c7f7;}.cls-4{fill:#7ecf3b;}.cls-5{fill:#f95f5d;}.cls-6{fill:#fdaf42;}</style></defs><title>图标</title><path class="cls-1" d="M29.61,5.07H4.5A2.84,2.84,0,0,0,1.67,7.91v36.4A2.83,2.83,0,0,0,4.5,47.14H35.55a2.83,2.83,0,0,0,2.83-2.83V14.25Z"/><path class="cls-2" d="M29.61,5.07v6.34a2.85,2.85,0,0,0,2.84,2.84h5.93"/><rect class="cls-3" x="10.67" y="16.75" width="18.72" height="18.72" rx="2.83" ry="2.83"/><path class="cls-4" d="M29.38,32.63V29.16H10.67v3.47a2.84,2.84,0,0,0,2.83,2.84H26.55A2.84,2.84,0,0,0,29.38,32.63Z"/><rect class="cls-5" x="10.67" y="22.93" width="18.72" height="6.31"/><rect class="cls-6" x="17.92" y="16.75" width="4.21" height="18.72"/><path class="cls-7" d="M22.52,24.75v2.72h-5V24.75h5m1-1h-7v4.74h7V23.74Z"/></svg>