<?xml version="1.0" encoding="UTF-8"?>
<svg width="20px" height="20px" viewBox="0 0 20 20" version="1.1" xmlns="http://www.w3.org/2000/svg" xmlns:xlink="http://www.w3.org/1999/xlink">
    <!-- Generator: Sketch 50 (54983) - http://www.bohemiancoding.com/sketch -->
    <title>二维码</title>
    <desc>Created with Sketch.</desc>
    <defs></defs>
    <g id="PC端页面" stroke="none" stroke-width="1" fill="none" fill-rule="evenodd">
        <g id="资料管理-文件-缩略" transform="translate(-335.000000, -139.000000)">
            <g id="二维码" transform="translate(335.000000, 139.000000)">
                <rect id="Rectangle-13" stroke="#409EFF" stroke-width="2" x="12" y="1" width="7" height="7"></rect>
                <rect id="Rectangle-14" fill="#409EFF" x="14" y="3" width="3" height="3"></rect>
                <rect id="Rectangle-13" stroke="#409EFF" stroke-width="2" x="1" y="1" width="7" height="7"></rect>
                <rect id="Rectangle-14" fill="#409EFF" x="3" y="3" width="3" height="3"></rect>
                <rect id="Rectangle-13" stroke="#409EFF" stroke-width="2" x="1" y="12" width="7" height="7"></rect>
                <rect id="Rectangle-14" fill="#409EFF" x="3" y="14" width="3" height="3"></rect>
                <path d="M18,18 L18,15 L20,15 L20,20 L18,20 L15,20 L15,18 L18,18 Z M18,11 L20,11 L20,13 L18,13 L18,11 Z M11,11 L13,11 L13,13 L11,13 L11,11 Z M11,18 L13,18 L13,20 L11,20 L11,18 Z M13,13 L15,13 L15,18 L13,18 L13,13 Z" id="Combined-Shape" fill="#409EFF"></path>
            </g>
        </g>
    </g>
</svg>