<?xml version="1.0" standalone="no"?><!DOCTYPE svg PUBLIC "-//W3C//DTD SVG 1.1//EN" "http://www.w3.org/Graphics/SVG/1.1/DTD/svg11.dtd"><svg t="1524805272301" class="icon" style="" viewBox="0 0 1024 1024" version="1.1" xmlns="http://www.w3.org/2000/svg" p-id="2778" xmlns:xlink="http://www.w3.org/1999/xlink" width="200" height="200"><defs><style type="text/css"></style></defs><path d="M967.261478 1.002447L56.788644 0C25.863142 0 0.551346 27.116202 0.551346 60.146843s25.061185 60.146843 56.237298 60.146843l910.472834 1.002447c30.925502 0 56.187176-27.166324 56.187176-60.146843s-25.261674-60.146843-56.187176-60.146843zM967.261478 452.103769L56.788644 451.101322C25.863142 451.101322 0.551346 478.267646 0.551346 511.248164s25.061185 60.146843 56.237298 60.146843l910.472834 1.05257c30.925502 0 56.187176-27.166324 56.187176-60.146843s-25.261674-60.196965-56.187176-60.196965zM967.261478 903.255213l-910.472834-1.002447c-30.925502 0-56.237298 27.166324-56.237298 60.146842s25.061185 60.146843 56.237298 60.146843l910.472834 1.002448c30.925502 0 56.187176-27.166324 56.187176-60.146843s-25.261674-60.146843-56.187176-60.146843z" fill="" p-id="2779"></path></svg>