<?xml version="1.0" encoding="UTF-8"?>
<svg width="16px" height="16px" viewBox="0 0 16 16" version="1.1" xmlns="http://www.w3.org/2000/svg" xmlns:xlink="http://www.w3.org/1999/xlink">
    <!-- Generator: Sketch 50 (54983) - http://www.bohemiancoding.com/sketch -->
    <title>劳务</title>
    <desc>Created with Sketch.</desc>
    <defs></defs>
    <g id="PC端页面" stroke="none" stroke-width="1" fill="none" fill-rule="evenodd">
        <g id="资料管理-文件-缩略" transform="translate(-376.000000, -873.000000)">
            <g id="侧边栏" transform="translate(360.000000, 97.000000)">
                <g id="劳务" transform="translate(16.000000, 776.000000)">
                    <path d="M2.18846084,9.3 C2.6781579,12.8604818 5.13275886,15.5 8,15.5 C10.8672411,15.5 13.3218421,12.8604818 13.8115392,9.3 L2.18846084,9.3 Z" id="Combined-Shape" stroke="#409EFF"></path>
                    <path d="M10.4,0.581517047 C12.3914588,1.58916957 13.8848157,3.81340909 14.2902399,6.51694695 C15.3611501,6.92517659 16,7.44020658 16,8 C16,9.3254834 12.418278,10.4 8,10.4 C3.581722,10.4 0,9.3254834 0,8 C0,7.44020658 0.638849947,6.92517659 1.70976005,6.51694695 C2.11518426,3.81340909 3.60854122,1.58916957 5.6,0.581517047 L5.6,3.6 C5.6,3.8209139 5.7790861,4 6,4 C6.2209139,4 6.4,3.8209139 6.4,3.6 L6.4,0.4 C6.4,0.350816403 6.3911232,0.303706093 6.37488432,0.260183783 C6.8938286,0.0903968588 7.43846897,0 8,0 C8.56153103,0 9.1061714,0.0903968588 9.62511568,0.260183783 C9.6088768,0.303706093 9.6,0.350816403 9.6,0.4 L9.6,3.6 C9.6,3.8209139 9.7790861,4 10,4 C10.2209139,4 10.4,3.8209139 10.4,3.6 L10.4,0.581517047 Z" id="Combined-Shape" fill="#409EFF"></path>
                </g>
            </g>
        </g>
    </g>
</svg>