<?xml version="1.0" standalone="no"?><!DOCTYPE svg PUBLIC "-//W3C//DTD SVG 1.1//EN" "http://www.w3.org/Graphics/SVG/1.1/DTD/svg11.dtd"><svg class="icon" width="32px" height="32.00px" viewBox="0 0 1024 1024" version="1.1" xmlns="http://www.w3.org/2000/svg"><path fill="#0090ff" d="M147.104 738.88a32 32 0 0 1 15.456 42.56l-27.04 57.984a32 32 0 0 1-58.016-27.04l27.072-58.016a32 32 0 0 1 42.528-15.456z m327.936 0a32 32 0 0 1 15.488 42.56l-27.04 57.984a32 32 0 0 1-58.016-27.04l27.04-58.016a32 32 0 0 1 42.56-15.456z m320 0a32 32 0 0 1 15.488 42.56l-27.04 57.984a32 32 0 0 1-58.016-27.04l27.04-58.016a32 32 0 0 1 42.56-15.456z m-480 64a32 32 0 0 1 15.488 42.56l-27.04 57.984a32 32 0 0 1-58.016-27.04l27.04-58.016a32 32 0 0 1 42.56-15.456z m320 0a32 32 0 0 1 15.488 42.56l-27.04 57.984a32 32 0 0 1-58.016-27.04l27.04-58.016a32 32 0 0 1 42.56-15.456z m295.968 0a32 32 0 0 1 15.456 42.56l-27.04 57.984a32 32 0 0 1-57.984-27.04l27.04-58.016a32 32 0 0 1 42.528-15.456z m-410.88-673.792a53.82 53.82 0 0 1 4.864-2.784c28.96-14.496 64.544-24.192 99.008-24.192 104.832 0 192.256 75.904 211.872 176.544C907.392 298.24 960 364.576 960 443.424c0 94.24-75.2 170.656-168 170.656h-14.848v-0.032a32 32 0 0 1 0-63.936v-0.032h5.504A113.152 113.152 0 0 0 896 437.12c0-62.368-50.752-112.928-113.344-112.928 0-87.328-71.04-158.112-158.656-158.112-25.728 0-54.816 13.632-77.376 21.216a30.08 30.08 0 0 1-19.616 0.064 32 32 0 0 1-6.88-58.304z m53.44 484.928C627.456 605.248 672 557.312 672 501.152c0-62.4-50.752-112.96-113.344-112.96 0-87.328-71.04-158.112-158.656-158.112s-158.656 70.784-158.656 158.112A113.152 113.152 0 0 0 128 501.152c0 56.224 44.832 104.224 98.88 112.864a32 32 0 1 1-6.72 63.648C132.928 671.488 64 597.632 64 507.424c0-78.848 52.608-145.184 124.128-164.8C207.744 241.984 295.168 166.08 400 166.08c104.832 0 192.256 75.904 211.872 176.544C683.392 362.24 736 428.576 736 507.424c0 90.208-68.896 164.064-156.16 170.24a32 32 0 0 1-6.272-63.68z"  /></svg>