<?xml version="1.0" standalone="no"?><!DOCTYPE svg PUBLIC "-//W3C//DTD SVG 1.1//EN" "http://www.w3.org/Graphics/SVG/1.1/DTD/svg11.dtd"><svg class="icon" width="32px" height="32.00px" viewBox="0 0 1024 1024" version="1.1" xmlns="http://www.w3.org/2000/svg"><path fill="#0090ff" d="M190.56 782.88a224.096 224.096 0 0 1 38.944-418.08C255.68 232.736 372.224 133.12 512 133.12c139.808 0 256.32 99.616 282.496 231.712a224.096 224.096 0 0 1 39.04 417.984l-0.064 0.032a32 32 0 0 1-27.456-57.824A160 160 0 0 0 736 421.12a224 224 0 0 0-448 0 160 160 0 0 0-68.672 304.576 32 32 0 1 1-28.8 57.184z m119.84-10.56v-25.376a16 16 0 1 1 32 0v25.344l17.92-17.92a16 16 0 0 1 22.656 22.624l-17.92 17.92H390.4a16 16 0 1 1 0 32h-25.376l17.92 17.952a16 16 0 0 1-22.592 22.624l-17.952-17.92v25.376a16 16 0 0 1-32 0v-25.376l-17.92 17.92a16 16 0 1 1-22.656-22.624l17.92-17.92H262.4a16 16 0 0 1 0-32h25.376l-17.92-17.952a16 16 0 0 1 22.592-22.624l17.952 17.92z m185.6 0v-25.376a16 16 0 1 1 32 0v25.344l17.92-17.92a16 16 0 0 1 22.656 22.624l-17.92 17.92H576a16 16 0 1 1 0 32h-25.376l17.92 17.952a16 16 0 0 1-22.592 22.624L528 849.568v25.376a16 16 0 0 1-32 0v-25.376l-17.92 17.92a16 16 0 1 1-22.656-22.624l17.92-17.92H448a16 16 0 0 1 0-32h25.376l-17.92-17.952a16 16 0 0 1 22.592-22.624L496 772.288z m181.184 0v-25.376a16 16 0 1 1 32 0v25.344l17.952-17.92a16 16 0 0 1 22.624 22.624l-17.92 17.92h25.344a16 16 0 1 1 0 32h-25.376l17.952 17.952a16 16 0 0 1-22.624 22.624l-17.92-17.92v25.376a16 16 0 0 1-32 0v-25.376l-17.952 17.92a16 16 0 1 1-22.624-22.624l17.92-17.92h-25.376a16 16 0 0 1 0-32h25.376l-17.92-17.952a16 16 0 1 1 22.624-22.624l17.92 17.92z"  /></svg>