<?xml version="1.0" standalone="no"?><!DOCTYPE svg PUBLIC "-//W3C//DTD SVG 1.1//EN" "http://www.w3.org/Graphics/SVG/1.1/DTD/svg11.dtd"><svg class="icon" width="32px" height="32.00px" viewBox="0 0 1024 1024" version="1.1" xmlns="http://www.w3.org/2000/svg"><path fill="#0090ff" d="M512 408.192a240 240 0 1 1 0 239.616 240 240 0 1 1 0-239.616zM304 704a176 176 0 1 0 0-352 176 176 0 0 0 0 352z m418.24 0a176 176 0 1 0 0-352 176 176 0 0 0 0 352zM160 256a32 32 0 1 1 0-64 32 32 0 0 1 0 64z m352 0a32 32 0 1 1 0-64 32 32 0 0 1 0 64z m352 0a32 32 0 1 1 0-64 32 32 0 0 1 0 64zM160 832a32 32 0 1 1 0-64 32 32 0 0 1 0 64z m352 0a32 32 0 1 1 0-64 32 32 0 0 1 0 64z m352 0a32 32 0 1 1 0-64 32 32 0 0 1 0 64z"  /></svg>