<?xml version="1.0" standalone="no"?><!DOCTYPE svg PUBLIC "-//W3C//DTD SVG 1.1//EN" "http://www.w3.org/Graphics/SVG/1.1/DTD/svg11.dtd"><svg class="icon" width="32px" height="32.00px" viewBox="0 0 1024 1024" version="1.1" xmlns="http://www.w3.org/2000/svg"><path fill="#0090ff" d="M288 672h448a160 160 0 0 0 0-320 224 224 0 0 0-448 0 160 160 0 0 0 0 320z m0 64a224 224 0 0 1-58.496-440.288C255.68 163.616 372.224 64 512 64c139.808 0 256.32 99.616 282.496 231.712A224 224 0 0 1 736 736H288z m-36.96 69.984a32 32 0 0 1 15.488 42.56l-27.04 57.984a32 32 0 1 1-58.016-27.04l27.04-58.016a32 32 0 0 1 42.56-15.488z m192 0a32 32 0 0 1 15.488 42.56l-27.04 57.984a32 32 0 1 1-58.016-27.04l27.04-58.016a32 32 0 0 1 42.56-15.488z m192 0a32 32 0 0 1 15.488 42.56l-27.04 57.984a32 32 0 1 1-58.016-27.04l27.04-58.016a32 32 0 0 1 42.56-15.488z m192 0a32 32 0 0 1 15.488 42.56l-27.04 57.984a32 32 0 1 1-58.016-27.04l27.04-58.016a32 32 0 0 1 42.56-15.488z"  /></svg>