<?xml version="1.0" standalone="no"?><!DOCTYPE svg PUBLIC "-//W3C//DTD SVG 1.1//EN" "http://www.w3.org/Graphics/SVG/1.1/DTD/svg11.dtd"><svg class="icon" width="32px" height="32.00px" viewBox="0 0 1024 1024" version="1.1" xmlns="http://www.w3.org/2000/svg"><path fill="#0090ff" d="M749.376 688H685.44a192 192 0 1 0-337.76 0h-73.056a256 256 0 1 1 474.784 0zM512 144a32 32 0 0 1 32 32v96a32 32 0 0 1-64 0v-96a32 32 0 0 1 32-32z m316.8 131.2a32 32 0 0 1 0 45.28l-67.904 67.872a32 32 0 0 1-45.248-45.248L783.52 275.2a32 32 0 0 1 45.248 0zM960 592a32 32 0 0 1-32 32h-96a32 32 0 0 1 0-64h96a32 32 0 0 1 32 32z m-896 0a32 32 0 0 1 32-32h96a32 32 0 0 1 0 64H96a32 32 0 0 1-32-32z m131.2-316.8a32 32 0 0 1 45.28 0l67.872 67.904a32 32 0 1 1-45.248 45.248L195.2 320.48a32 32 0 0 1 0-45.248zM96 688h832a32 32 0 0 1 0 64H96a32 32 0 0 1 0-64z m0 128h832a32 32 0 0 1 0 64H96a32 32 0 0 1 0-64z"  /></svg>