<?xml version="1.0" standalone="no"?><!DOCTYPE svg PUBLIC "-//W3C//DTD SVG 1.1//EN" "http://www.w3.org/Graphics/SVG/1.1/DTD/svg11.dtd"><svg class="icon" width="32px" height="32.00px" viewBox="0 0 1024 1024" version="1.1" xmlns="http://www.w3.org/2000/svg"><path fill="#0090ff" d="M288 672h448a160 160 0 0 0 0-320 224 224 0 0 0-448 0 160 160 0 0 0 0 320z m0 64a224 224 0 0 1-58.496-440.288C255.68 163.616 372.224 64 512 64c139.808 0 256.32 99.616 282.496 231.712A224 224 0 0 1 736 736H288z m225.536 105.376V816a16 16 0 1 1 32 0v25.376l17.92-17.92a16 16 0 0 1 22.656 22.592L568.192 864h25.344a16 16 0 1 1 0 32H568.16l17.92 17.92a16 16 0 0 1-22.592 22.656l-17.92-17.92V944a16 16 0 1 1-32 0v-25.376l-17.984 17.92a16 16 0 0 1-22.624-22.592L490.912 896h-25.376a16 16 0 1 1 0-32h25.376l-17.92-17.92a16 16 0 1 1 22.592-22.656l17.952 17.92z"  /></svg>