<?xml version="1.0" standalone="no"?><!DOCTYPE svg PUBLIC "-//W3C//DTD SVG 1.1//EN" "http://www.w3.org/Graphics/SVG/1.1/DTD/svg11.dtd"><svg class="icon" width="32px" height="32.00px" viewBox="0 0 1024 1024" version="1.1" xmlns="http://www.w3.org/2000/svg"><path fill="#0090ff" d="M190.56 770.4a224.096 224.096 0 0 1 38.944-418.08C255.68 220.256 372.224 120.64 512 120.64c139.808 0 256.32 99.616 282.496 231.712a224.096 224.096 0 0 1 39.04 417.984l-0.064 0.032a32 32 0 0 1-27.456-57.824A160 160 0 0 0 736 408.64a224 224 0 0 0-448 0 160 160 0 0 0-68.672 304.576 32 32 0 1 1-28.8 57.184z m153.856-28.288a32 32 0 0 1 15.488 42.56l-27.04 57.984a32 32 0 1 1-58.016-27.04l27.04-58.016a32 32 0 0 1 42.56-15.488z m390.24 30.496a48 48 0 1 1-40.576 87.008 48 48 0 0 1 40.576-87.008zM497.44 723.456h75.264a32 32 0 0 1 33.024 45.28l-54.08 116a32 32 0 1 1-58.048-27.04l32.768-70.24h-79.104a32 32 0 0 1-28.64-46.4l54.08-116a32 32 0 1 1 58.016 27.04l-33.28 71.36z"  /></svg>