<?xml version="1.0" standalone="no"?><!DOCTYPE svg PUBLIC "-//W3C//DTD SVG 1.1//EN" "http://www.w3.org/Graphics/SVG/1.1/DTD/svg11.dtd"><svg class="icon" width="32px" height="32.00px" viewBox="0 0 1024 1024" version="1.1" xmlns="http://www.w3.org/2000/svg"><path fill="#0090ff" d="M190.56 752.8a224.096 224.096 0 0 1 38.944-418.08C255.68 202.656 372.224 103.04 512 103.04c139.808 0 256.32 99.616 282.496 231.712a224.096 224.096 0 0 1 39.04 417.984l-0.064 0.032a32 32 0 0 1-27.456-57.824A160 160 0 0 0 736 391.04a224 224 0 0 0-448 0 160 160 0 0 0-68.672 304.576 32 32 0 1 1-28.8 57.184z m145.92-28.288a32 32 0 0 1 15.456 42.56l-27.04 57.984a32 32 0 1 1-58.016-27.072L293.952 740a32 32 0 0 1 42.528-15.488z m202.56 0a32 32 0 0 1 15.488 42.56l-27.04 57.984a32 32 0 1 1-58.016-27.072L496.512 740a32 32 0 0 1 42.56-15.488z m202.56 0a32 32 0 0 1 15.52 42.56l-27.072 57.984a32 32 0 0 1-57.984-27.072L699.104 740a32 32 0 0 1 42.528-15.488z m-328.896 77.28a32 32 0 0 1 15.456 42.528l-27.04 58.016a32 32 0 1 1-57.984-27.072l27.04-57.984a32 32 0 0 1 42.528-15.488z m204.8 0a32 32 0 0 1 15.456 42.528l-27.04 58.016a32 32 0 0 1-57.984-27.072l27.04-57.984a32 32 0 0 1 42.528-15.488z"  /></svg>