<?xml version="1.0" standalone="no"?><!DOCTYPE svg PUBLIC "-//W3C//DTD SVG 1.1//EN" "http://www.w3.org/Graphics/SVG/1.1/DTD/svg11.dtd"><svg class="icon" width="32px" height="32.00px" viewBox="0 0 1024 1024" version="1.1" xmlns="http://www.w3.org/2000/svg"><path fill="#0090ff" d="M241.344 617.184h317.312A113.152 113.152 0 0 0 672 504.224c0-62.368-50.752-112.928-113.344-112.928 0-87.328-71.04-158.112-158.656-158.112s-158.656 70.784-158.656 158.112A113.152 113.152 0 0 0 128 504.256c0 62.368 50.752 112.928 113.344 112.928z m-9.344 64c-92.8 0-168-76.416-168-170.688 0-78.816 52.608-145.184 124.128-164.8C207.744 245.056 295.168 169.184 400 169.184c104.832 0 192.256 75.872 211.872 176.544C683.392 365.312 736 431.68 736 510.528c0 94.24-75.2 170.656-168 170.656H232z m-84.896 60.8a32 32 0 0 1 15.456 42.56l-27.04 57.984a32 32 0 0 1-58.016-27.04l27.072-58.016a32 32 0 0 1 42.528-15.488z m327.936 0a32 32 0 0 1 15.488 42.56l-27.04 57.984a32 32 0 1 1-58.016-27.04l27.04-58.016a32 32 0 0 1 42.56-15.488z m320 0a32 32 0 0 1 15.488 42.56l-27.04 57.984a32 32 0 1 1-58.016-27.04l27.04-58.016a32 32 0 0 1 42.56-15.488z m-480 64a32 32 0 0 1 15.488 42.56l-27.04 57.984a32 32 0 1 1-58.016-27.04l27.04-58.016a32 32 0 0 1 42.56-15.488z m320 0a32 32 0 0 1 15.488 42.56l-27.04 57.984a32 32 0 1 1-58.016-27.04l27.04-58.016a32 32 0 0 1 42.56-15.488z m295.968 0a32 32 0 0 1 15.456 42.56l-27.04 57.984a32 32 0 1 1-57.984-27.04l27.04-58.016a32 32 0 0 1 42.528-15.488zM520.128 132.16a53.82 53.82 0 0 1 4.864-2.784c28.96-14.496 64.544-24.192 99.008-24.192 104.832 0 192.256 75.872 211.872 176.544C907.392 301.312 960 367.68 960 446.528c0 94.24-75.2 170.656-168 170.656h-14.848v-0.032a32 32 0 0 1 0-63.936v-0.032h5.504A113.152 113.152 0 0 0 896 440.224c0-62.368-50.752-112.928-113.344-112.928 0-87.328-71.04-158.112-158.656-158.112-25.728 0-54.816 13.6-77.376 21.216a30.08 30.08 0 0 1-19.616 0.064 32 32 0 0 1-6.88-58.304z"  /></svg>