<?xml version="1.0" standalone="no"?><!DOCTYPE svg PUBLIC "-//W3C//DTD SVG 1.1//EN" "http://www.w3.org/Graphics/SVG/1.1/DTD/svg11.dtd"><svg class="icon" width="32px" height="32.00px" viewBox="0 0 1024 1024" version="1.1" xmlns="http://www.w3.org/2000/svg"><path fill="#0090ff" d="M239.936 350.688a32 32 0 1 1 0-64 32 32 0 0 1 0 64zM128 447.84a32 32 0 1 1 0-64 32 32 0 0 1 0 64z m224 0a32 32 0 1 1-0.032-64 32 32 0 0 1 0 64zM128 256a32 32 0 1 1 0-64 32 32 0 0 1 0 64z m224 0a32 32 0 1 1-0.032-64 32 32 0 0 1 0 64zM128 831.968a32 32 0 1 1 0-64 32 32 0 0 1 0 64zM256.032 768h64.064a32 32 0 1 1 0 64H256a32 32 0 0 1 0-64z m418.976-192.128A192 192 0 1 0 480 386.176a32 32 0 1 0 64 0v-2.304a128 128 0 1 1 128 128V512H96a32 32 0 0 0 0 64h576c1.024 0 2.016-0.032 3.008-0.128zM859.264 640a96 96 0 0 1 9.472 191.776 32 32 0 0 1-5.184-63.68v-0.224H864a32 32 0 0 0 1.92-63.936L864 704H96a32 32 0 0 1 0-64h763.264zM671.552 794.112v11.776A32 32 0 0 1 640.096 832H576a32 32 0 0 1 0-64h64.064a32 32 0 0 1 31.456 26.112zM448 832a32 32 0 1 1 0-64 32 32 0 0 1 0 64z"  /></svg>