<?xml version="1.0" standalone="no"?><!DOCTYPE svg PUBLIC "-//W3C//DTD SVG 1.1//EN" "http://www.w3.org/Graphics/SVG/1.1/DTD/svg11.dtd"><svg class="icon" width="32px" height="32.00px" viewBox="0 0 1024 1024" version="1.1" xmlns="http://www.w3.org/2000/svg"><path fill="#0090ff" d="M594.496 318.848a128 128 0 0 1 168.736 191.616l-0.064-0.064a32 32 0 1 1-44-46.4 64 64 0 0 0-86.048-94.08l-0.064-0.064a32 32 0 0 1-38.56-51.008z m365.408 130.72a32 32 0 0 1-32 32h-32a32 32 0 0 1 0-64h32a32 32 0 0 1 32 32z m-361.76-287.136a32 32 0 0 1 38.4 24l7.168 31.136a32 32 0 0 1-62.336 14.4l-7.2-31.168a32 32 0 0 1 24-38.4zM868.8 224.8a32 32 0 0 1 4.736 44.992l-20.16 24.864a32 32 0 1 1-49.728-40.256l20.16-24.864A32 32 0 0 1 868.8 224.8zM574.336 740.576c53.28-9.344 97.6-57.12 97.6-112.768A113.12 113.12 0 0 0 558.592 514.88c0-87.296-71.04-158.08-158.624-158.08-87.616 0-158.656 70.784-158.656 158.08A113.12 113.12 0 0 0 128 627.84c0 55.744 45.792 103.616 99.264 112.832a32 32 0 0 1-5.28 63.776C133.888 799.2 64 724.928 64 634.08c0-78.816 52.608-145.152 124.096-164.768 19.648-100.64 107.04-176.512 211.84-176.512 104.864 0 192.256 75.872 211.872 176.512 71.488 19.616 124.096 85.952 124.096 164.8 0 90.144-68.8 163.968-156 170.208a32 32 0 0 1-5.568-63.712z m-189.472 2.976v-25.376a16 16 0 1 1 32 0v25.376l17.92-17.92a16 16 0 1 1 22.656 22.624l-17.952 17.92h25.376a16 16 0 1 1 0 32h-25.376l17.92 17.92a16 16 0 0 1-22.624 22.656l-17.92-17.92v25.344a16 16 0 1 1-32 0V820.8l-17.92 17.952a16 16 0 0 1-22.656-22.624l17.92-17.92h-25.344a16 16 0 1 1 0-32h25.376l-17.952-17.952a16 16 0 0 1 22.624-22.656l17.92 17.952z"  /></svg>