<?xml version="1.0" standalone="no"?><!DOCTYPE svg PUBLIC "-//W3C//DTD SVG 1.1//EN" "http://www.w3.org/Graphics/SVG/1.1/DTD/svg11.dtd"><svg class="icon" width="32px" height="32.00px" viewBox="0 0 1024 1024" version="1.1" xmlns="http://www.w3.org/2000/svg"><path fill="#0090ff" d="M288 400a32 32 0 1 1 0-64 32 32 0 0 1 0 64z m224 0a32 32 0 1 1 0-64 32 32 0 0 1 0 64z m224 0a32 32 0 1 1 0-64 32 32 0 0 1 0 64zM160 528a32 32 0 1 1 0-64 32 32 0 0 1 0 64z m234.656 0a32 32 0 1 1 0-64 32 32 0 0 1 0 64z m234.688 0a32 32 0 1 1 0-64 32 32 0 0 1 0 64zM864 528a32 32 0 1 1 0-64 32 32 0 0 1 0 64zM160 272a32 32 0 1 1 0-64 32 32 0 0 1 0 64z m234.656 0a32 32 0 1 1 0-64 32 32 0 0 1 0 64z m234.688 0a32 32 0 1 1 0-64 32 32 0 0 1 0 64zM864 272a32 32 0 1 1 0-64 32 32 0 0 1 0 64zM96 624h832a32 32 0 0 1 0 64H96a32 32 0 0 1 0-64z m0 128h832a32 32 0 0 1 0 64H96a32 32 0 0 1 0-64z"  /></svg>