<?xml version="1.0" standalone="no"?><!DOCTYPE svg PUBLIC "-//W3C//DTD SVG 1.1//EN" "http://www.w3.org/Graphics/SVG/1.1/DTD/svg11.dtd"><svg class="icon" width="32px" height="32.00px" viewBox="0 0 1024 1024" version="1.1" xmlns="http://www.w3.org/2000/svg"><path fill="#0090ff" d="M190.56 748.48a224.096 224.096 0 0 1 38.944-418.048C255.68 198.4 372.224 98.784 512 98.784c139.808 0 256.32 99.616 282.496 231.712a224.096 224.096 0 0 1 39.04 417.984l-0.064 0.032a32 32 0 0 1-27.456-57.824A160 160 0 0 0 736 386.752a224 224 0 0 0-448 0 160 160 0 0 0-68.672 304.576 32 32 0 1 1-28.8 57.184z m3.136 58.144v-25.376a16 16 0 1 1 32 0v25.376l17.92-17.92a16 16 0 0 1 22.656 22.592l-17.952 17.92h25.376a16 16 0 1 1 0 32H248.32l17.92 17.984a16 16 0 0 1-22.592 22.624l-17.952-17.952v25.376a16 16 0 0 1-32 0v-25.376l-17.92 17.92A16 16 0 1 1 153.12 879.2l17.92-17.952h-25.344a16 16 0 0 1 0-32h25.376l-17.92-17.92a16 16 0 0 1 22.592-22.656l17.92 17.92z m201.536 0v-25.376a16 16 0 1 1 32 0v25.376l17.952-17.92a16 16 0 0 1 22.624 22.592l-17.92 17.92h25.344a16 16 0 1 1 0 32h-25.376l17.952 17.984a16 16 0 1 1-22.624 22.624l-17.92-17.952v25.376a16 16 0 0 1-32 0v-25.376l-17.952 17.92a16 16 0 1 1-22.624-22.592l17.92-17.952h-25.376a16 16 0 0 1 0-32h25.376l-17.92-17.92a16 16 0 0 1 22.624-22.656l17.92 17.92z m201.568 0v-25.376a16 16 0 1 1 32 0v25.376l17.92-17.92a16 16 0 0 1 22.624 22.592l-17.92 17.92H676.8a16 16 0 1 1 0 32h-25.376l17.92 17.984a16 16 0 1 1-22.624 22.624l-17.92-17.952v25.376a16 16 0 0 1-32 0v-25.376l-17.952 17.92a16 16 0 1 1-22.624-22.592l17.92-17.952H548.8a16 16 0 0 1 0-32h25.376l-17.952-17.92a16 16 0 0 1 22.624-22.656l17.92 17.92z m201.536 0v-25.376a16 16 0 1 1 32 0v25.376l17.92-17.92a16 16 0 0 1 22.656 22.592l-17.92 17.92h25.344a16 16 0 1 1 0 32H852.96l17.92 17.984a16 16 0 1 1-22.592 22.624l-17.92-17.952v25.376a16 16 0 0 1-32 0v-25.376l-17.984 17.92A16 16 0 1 1 757.76 879.2l17.952-17.952h-25.376a16 16 0 0 1 0-32h25.376l-17.92-17.92a16 16 0 0 1 22.592-22.656l17.952 17.92z"  /></svg>