<?xml version="1.0" standalone="no"?><!DOCTYPE svg PUBLIC "-//W3C//DTD SVG 1.1//EN" "http://www.w3.org/Graphics/SVG/1.1/DTD/svg11.dtd"><svg class="icon" width="32px" height="32.00px" viewBox="0 0 1024 1024" version="1.1" xmlns="http://www.w3.org/2000/svg"><path fill="#0090ff" d="M128 895.84a32 32 0 1 1 0-64 32 32 0 0 1 0 64z m128.032-63.936h64.064a32 32 0 1 1 0 64H256a32 32 0 1 1 0-64z m192 63.936a32 32 0 1 1-0.032-64 32 32 0 0 1 0 64z m224-383.968H96a32 32 0 1 1 0-64v0.032h576a128 128 0 1 0-128-125.696 32 32 0 1 1-64-0.64v-1.6A192 192 0 0 1 672 128a192 192 0 1 1 0 383.872zM860.128 640H96a32 32 0 0 1 0-64h768c0.608 0 1.184 0 1.76 0.064a32 32 0 0 0-2.208-63.936v-0.256a32 32 0 1 1 5.184-63.616A96 96 0 0 1 860.128 640z m-1.952 64a96 96 0 0 1 10.56 191.68 32 32 0 0 1-5.184-63.616v-0.288H864a32 32 0 0 0 2.496-63.872A32.448 32.448 0 0 1 864 768H96a32 32 0 0 1 0-64h762.176zM576.032 831.904h64.064a32 32 0 1 1 0 64H576a32 32 0 1 1 0-64zM128.032 352a32 32 0 1 1-0.032-64 32 32 0 0 1 0 64z m128-63.936H384a32 32 0 1 1 0 64H256.032a32 32 0 1 1 0-64z"  /></svg>