<?xml version="1.0" standalone="no"?><!DOCTYPE svg PUBLIC "-//W3C//DTD SVG 1.1//EN" "http://www.w3.org/Graphics/SVG/1.1/DTD/svg11.dtd"><svg class="icon" width="32px" height="32.00px" viewBox="0 0 1024 1024" version="1.1" xmlns="http://www.w3.org/2000/svg"><path fill="#0090ff" d="M241.344 576h317.312A113.152 113.152 0 0 0 672 463.04c0-62.368-50.752-112.928-113.344-112.928C558.656 262.784 487.616 192 400 192s-158.656 70.784-158.656 158.112A113.152 113.152 0 0 0 128 463.072C128 525.44 178.752 576 241.344 576zM232 640c-92.8 0-168-76.416-168-170.656 0-78.848 52.608-145.184 124.128-164.8C207.744 203.904 295.168 128 400 128c104.832 0 192.256 75.904 211.872 176.544C683.392 324.16 736 390.496 736 469.344 736 563.584 660.8 640 568 640H232zM520.128 90.976a53.82 53.82 0 0 1 4.864-2.784C553.952 73.696 589.536 64 624 64c104.832 0 192.256 75.904 211.872 176.544C907.392 260.16 960 326.496 960 405.344 960 499.584 884.8 576 792 576h-14.848v-0.032a32 32 0 0 1 0-63.936V512h5.504A113.152 113.152 0 0 0 896 399.04c0-62.368-50.752-112.928-113.344-112.928C782.656 198.784 711.616 128 624 128c-25.728 0-54.816 13.632-77.376 21.216a30.08 30.08 0 0 1-19.616 0.064 32 32 0 0 1-6.88-58.304zM496 714.72a16 16 0 1 1 32 0v25.344l17.92-17.92a16 16 0 0 1 22.656 22.624l-17.92 17.92H576a16 16 0 1 1 0 32h-25.376l17.92 17.952a16 16 0 0 1-22.592 22.624L528 817.344v25.376a16 16 0 0 1-32 0v-25.376l-17.92 17.92a16 16 0 1 1-22.656-22.624l17.92-17.92H448a16 16 0 0 1 0-32h25.376l-17.92-17.952a16 16 0 0 1 22.592-22.624L496 740.064V714.72z m336.096 0a16 16 0 0 1 32 0v25.344l17.92-17.92a16 16 0 0 1 22.656 22.624l-17.92 17.92h25.344a16 16 0 1 1 0 32H886.72l17.92 17.952a16 16 0 0 1-22.592 22.624l-17.92-17.92v25.376a16 16 0 0 1-32 0v-25.376l-17.952 17.92a16 16 0 1 1-22.656-22.624l17.952-17.92h-25.376a16 16 0 0 1 0-32h25.376l-17.92-17.952a16 16 0 1 1 22.624-22.624l17.92 17.92V714.72z m-671.68 0a16 16 0 1 1 32 0v25.344l17.92-17.92a16 16 0 0 1 22.656 22.624l-17.92 17.92h25.344a16 16 0 1 1 0 32H215.04l17.952 17.952a16 16 0 0 1-22.624 22.624l-17.92-17.92v25.376a16 16 0 0 1-32 0v-25.376l-17.952 17.92a16 16 0 1 1-22.656-22.624l17.952-17.92h-25.376a16 16 0 0 1 0-32h25.376l-17.92-17.952a16 16 0 0 1 22.624-22.624l17.92 17.92V714.72zM328 816a16 16 0 1 1 32 0v25.376l17.92-17.92a16 16 0 0 1 22.656 22.592L382.656 864H408a16 16 0 1 1 0 32h-25.376l17.92 17.92a16 16 0 0 1-22.592 22.656L360 918.656V944a16 16 0 1 1-32 0v-25.376l-17.92 17.92a16 16 0 0 1-22.656-22.592L305.344 896H280a16 16 0 1 1 0-32h25.376l-17.92-17.92a16 16 0 0 1 22.592-22.656L328 841.344V816z m336 0a16 16 0 1 1 32 0v25.376l17.92-17.92a16 16 0 0 1 22.656 22.592L718.656 864H744a16 16 0 1 1 0 32h-25.376l17.92 17.92a16 16 0 0 1-22.592 22.656L696 918.656V944a16 16 0 1 1-32 0v-25.376l-17.92 17.92a16 16 0 0 1-22.656-22.592L641.344 896H616a16 16 0 1 1 0-32h25.376l-17.92-17.92a16 16 0 0 1 22.592-22.656L664 841.344V816z"  /></svg>