<?xml version="1.0" standalone="no"?><!DOCTYPE svg PUBLIC "-//W3C//DTD SVG 1.1//EN" "http://www.w3.org/Graphics/SVG/1.1/DTD/svg11.dtd"><svg class="icon" width="32px" height="32.00px" viewBox="0 0 1024 1024" version="1.1" xmlns="http://www.w3.org/2000/svg"><path fill="#0090ff" d="M190.56 780.96a224.096 224.096 0 0 1 38.944-418.08C255.68 230.816 372.224 131.2 512 131.2c139.808 0 256.32 99.616 282.496 231.712a224.096 224.096 0 0 1 39.04 417.984l-0.064 0.032a32 32 0 0 1-27.456-57.824A160 160 0 0 0 736 419.2a224 224 0 0 0-448 0 160 160 0 0 0-68.672 304.576 32 32 0 1 1-28.8 57.184zM384 774.176V748.8a16 16 0 1 1 32 0v25.376l17.92-17.92a16 16 0 1 1 22.656 22.592l-17.92 17.952H464a16 16 0 1 1 0 32h-25.376l17.92 17.92a16 16 0 0 1-22.592 22.656L416 851.456V876.8a16 16 0 1 1-32 0v-25.376l-17.92 17.92a16 16 0 0 1-22.656-22.592l17.92-17.952H336a16 16 0 1 1 0-32h25.376l-17.92-17.92a16 16 0 0 1 22.592-22.656L384 774.144z m224 0V748.8a16 16 0 1 1 32 0v25.376l17.92-17.92a16 16 0 1 1 22.656 22.592l-17.92 17.952H688a16 16 0 1 1 0 32h-25.376l17.92 17.92a16 16 0 0 1-22.592 22.656L640 851.456V876.8a16 16 0 1 1-32 0v-25.376l-17.92 17.92a16 16 0 0 1-22.656-22.592l17.92-17.952H560a16 16 0 1 1 0-32h25.376l-17.92-17.92a16 16 0 0 1 22.592-22.656L608 774.144z"  /></svg>