<?xml version="1.0" encoding="UTF-8"?>
<svg width="397px" height="301px" viewBox="0 0 397 301" version="1.1" xmlns="http://www.w3.org/2000/svg" xmlns:xlink="http://www.w3.org/1999/xlink">
    <!-- Generator: Sketch 50 (54983) - http://www.bohemiancoding.com/sketch -->
    <title>安全</title>
    <desc>Created with Sketch.</desc>
    <defs></defs>
    <g id="Page-1" stroke="none" stroke-width="1" fill="none" fill-rule="evenodd">
        <g id="官网首页" transform="translate(-736.000000, -4078.000000)">
            <g id="6" transform="translate(573.000000, 3985.000000)">
                <g id="安全" transform="translate(163.000000, 93.000000)">
                    <g id="网页" transform="translate(83.000000, 0.000000)">
                        <g id="网站">
                            <rect id="Rectangle-10" fill="#F0F0F1" x="6" y="3" width="308" height="260"></rect>
                            <rect id="Rectangle-10" stroke="#E2E7E8" fill="#FFFFFF" x="0.5" y="0.5" width="307" height="259"></rect>
                            <rect id="Rectangle-11" fill="#AAB2B8" x="0" y="0" width="308" height="22.8070175"></rect>
                            <circle id="Oval-18" fill="#EFF9FF" cx="12" cy="11" r="3"></circle>
                            <circle id="Oval-18" fill="#EFF9FF" cx="22" cy="11" r="3"></circle>
                            <circle id="Oval-18" fill="#EFF9FF" cx="32" cy="11" r="3"></circle>
                        </g>
                        <g id="1" transform="translate(25.000000, 52.000000)" fill="#E8EEF0">
                            <path d="M36.5517241,6.85714286 L36.5517241,43.4285714 L73.1034483,43.4285714 C73.1034483,63.6264137 56.738684,80 36.5517241,80 C16.3647643,80 0,63.6264137 0,43.4285714 C0,23.2307292 16.3647643,6.85714286 36.5517241,6.85714286 Z" id="Combined-Shape"></path>
                            <path d="M43.4051724,0 C63.5921322,0 79.9568966,16.3735863 79.9568966,36.5714286 L43.4051724,36.5714286 L43.4051724,0 Z" id="Combined-Shape"></path>
                            <rect id="Rectangle-13" x="116.508621" y="22.8571429" width="63.9655172" height="6.85714286"></rect>
                            <rect id="Rectangle-13" x="116.508621" y="38.8571429" width="148.491379" height="6.85714286"></rect>
                            <rect id="Rectangle-13" x="116.508621" y="54.8571429" width="98.2327586" height="6.85714286"></rect>
                        </g>
                        <g id="2" transform="translate(34.000000, 153.000000)" fill="#E8EEF0">
                            <path d="M51.5885093,14.4892891 C47.2259196,31.1110322 28.8562388,43.5882353 6.85714286,43.5882353 C5.81810774,43.5882353 4.78716893,43.5604018 3.76541984,43.5056127 C18.9452453,38.9570746 31.1939538,28.239323 37.1730063,14.4892891 L29.7554008,14.4892891 L44.8043406,0.881276392 L58.1330473,14.4892891 L51.5885093,14.4892891 Z" id="Combined-Shape"></path>
                            <rect id="Rectangle-13" x="107.428571" y="18.3529412" width="64" height="6.88235294"></rect>
                            <rect id="Rectangle-13" x="107.428571" y="39" width="148.571429" height="6.88235294"></rect>
                            <rect id="Rectangle-13" x="107.428571" y="52.7647059" width="98.2857143" height="6.88235294"></rect>
                            <rect id="Rectangle-14" x="0" y="64.2352941" width="11.4285714" height="13.7647059"></rect>
                            <rect id="Rectangle-14" x="20.5714286" y="50.4705882" width="11.4285714" height="27.5294118"></rect>
                            <rect id="Rectangle-14" x="41.1428571" y="36.7058824" width="11.4285714" height="41.2941176"></rect>
                            <rect id="Rectangle-14" x="61.7142857" y="25.2352941" width="11.4285714" height="52.7647059"></rect>
                        </g>
                    </g>
                    <path d="M85,111 C103.800319,125.165016 130.221291,132.247524 164.262917,132.247524 C169.873623,216.628419 143.452651,272.879244 85,301 C26.5473492,272.879244 0.126377053,216.628419 5.73708343,132.247524 C39.7787085,132.247524 66.1996807,125.165016 85,111 Z" id="Combined-Shape" fill="#CFCFCF" opacity="0.5"></path>
                    <path d="M80,104 C98.8003193,118.165016 125.221291,125.247524 159.262917,125.247524 C164.873623,209.628419 138.452651,265.879244 80,294 C21.5473492,265.879244 -4.87362295,209.628419 0.737083431,125.247524 C34.7787085,125.247524 61.1996807,118.165016 80,104 Z" id="Combined-Shape" fill="#F0F5F8"></path>
                    <path d="M80,121 C95.5102634,132.630224 117.307565,138.445335 145.391906,138.445335 C150.020739,207.726491 128.223437,253.911379 80,277 C31.7765631,253.911379 9.97926107,207.726491 14.6080938,138.445335 C42.6924345,138.445335 64.4897366,132.630224 80,121 Z" id="Combined-Shape" fill="#14D06F"></path>
                    <path d="M77.0943267,198.250739 L73,213 L87,213 L82.9056733,198.250739 C84.7509675,197.2274 86,195.259564 86,193 C86,189.686292 83.3137085,187 80,187 C76.6862915,187 74,189.686292 74,193 C74,195.259564 75.2490325,197.2274 77.0943267,198.250739 Z M53,178 L107,178 C109.209139,178 111,179.790861 111,182 L111,224 C111,226.209139 109.209139,228 107,228 L53,228 C50.790861,228 49,226.209139 49,224 L49,182 C49,179.790861 50.790861,178 53,178 Z" id="Combined-Shape" fill="#FFFFFF"></path>
                    <path d="M101,179 L95,179 L95,171 C95,162.715729 88.2842712,156 80,156 C71.7157288,156 65,162.715729 65,171 L65,179 L59,179 L59,171 C59,159.40202 68.4020203,150 80,150 C91.5979797,150 101,159.40202 101,171 L101,179 Z" id="Combined-Shape" fill="#FFFFFF" opacity="0.800000012"></path>
                </g>
            </g>
        </g>
    </g>
</svg>