<?xml version="1.0" standalone="no"?><!DOCTYPE svg PUBLIC "-//W3C//DTD SVG 1.1//EN" "http://www.w3.org/Graphics/SVG/1.1/DTD/svg11.dtd"><svg t="1526007496425" class="icon" style="" viewBox="0 0 2997 1024" version="1.1" xmlns="http://www.w3.org/2000/svg" p-id="4671" xmlns:xlink="http://www.w3.org/1999/xlink" width="585.3515625" height="200"><defs><style type="text/css"></style></defs><path d="M2997.073171 1024H0V0h2997.073171zM74.926829 949.073171h2847.219512V74.926829H74.926829z" fill="#DCDFE6" p-id="4672"></path><path d="M2872.195122 899.121951H124.878049V124.878049h2747.317073zM149.853659 874.146341h2697.365853V149.853659H149.853659z" fill="#DCDFE6" p-id="4673"></path><path d="M199.804878 201.303415v624.390244h2597.463415v-624.390244z m1136.390244 176.452683h140.113171a231.274146 231.274146 0 0 0-12.487805-30.345366l40.085853-6.743415a385.24878 385.24878 0 0 1 12.487805 37.463415h142.73561v88.413658h-36.339512V412.097561h-249.756098v53.947317h-36.339512z m267.114146 70.431219v34.091707h-212.292683v-34.091707z m-453.307317 212.292683A55.69561 55.69561 0 0 1 1114.037073 674.341463H907.239024c-31.843902 0-47.578537-16.483902-47.578536-49.951219V430.204878h35.964878v51.324878h195.933658v-89.162927h-247.258536v-34.091707h283.598049v157.346341h-232.273171v103.024391a18.856585 18.856585 0 0 0 21.354146 21.354146h187.317073a27.847805 27.847805 0 0 0 18.357074-6.743415c5.994146-5.619512 9.740488-28.097561 12.487804-67.434146l34.840976 11.239024c-5.369756 47.32878-11.738537 75.301463-19.605854 83.918049z m506.130732 9.740488a35.84 35.84 0 0 1-28.097561 10.489756h-64.437073c-25.849756 0-38.587317-14.610732-38.587317-43.457561V551.960976h-56.195122v1.123902a141.986341 141.986341 0 0 1-30.72 88.413659c-18.357073 20.230244-48.327805 36.339512-89.912195 47.578536l-20.230244-31.843902c40.085854-10.115122 67.434146-23.227317 82.419512-38.961951a109.518049 109.518049 0 0 0 23.227317-65.186342v-1.123902h-99.902439v-34.091708h328.554146v34.091708h-102.275122v78.298536c0 11.239024 4.49561 17.233171 14.236098 17.233171h47.203902a10.614634 10.614634 0 0 0 9.740488-7.492683 205.549268 205.549268 0 0 0 4.870244-47.203902l33.717073 10.489756c-2.497561 37.838049-6.868293 60.316098-13.237073 67.434146z m474.536585 10.115122c-16.483902 0-33.717073-11.239024-51.699512-33.342439a165.213659 165.213659 0 0 1-16.109268-24.97561 254.501463 254.501463 0 0 1-87.414634 64.062439l-20.230244-29.970732a242.013659 242.013659 0 0 0 91.910244-69.182439 402.731707 402.731707 0 0 1-13.861464-43.832195 568.070244 568.070244 0 0 1-16.359024-114.013658h-120.632195v54.696585h91.785366c-0.749268 67.80878-4.120976 110.517073-10.115122 128.499512a37.463415 37.463415 0 0 1-38.212683 23.976586c-8.99122 0-19.480976-0.749268-31.094634-1.873171l-10.864391-32.218537c14.985366 0.749268 27.348293 1.498537 37.463415 1.498537 6.743415 0 10.86439-4.49561 13.112195-12.487805a525.361951 525.361951 0 0 0 4.120976-73.428293h-56.569756v2.247805c-1.498537 69.307317-16.858537 124.878049-45.330732 166.712195l-26.973659-23.976585c23.227317-34.091707 35.590244-81.670244 36.714147-142.73561v-124.878049h154.349268c-0.749268-17.607805-0.749268-35.964878-0.749268-55.071219h35.964878c0 19.480976 0.749268 37.463415 1.498536 55.071219h57.693659a280.600976 280.600976 0 0 0-38.587317-35.215609l22.478049-21.728781a306.950244 306.950244 0 0 1 43.832195 39.71122l-17.233171 17.23317h44.956098v34.091708h-111.640976a561.95122 561.95122 0 0 0 13.986341 102.899512c1.498537 6.36878 3.371707 12.487805 5.244878 18.731707a447.438049 447.438049 0 0 0 39.336586-94.782439l32.593171 13.861464a455.430244 455.430244 0 0 1-56.944391 122.88 179.82439 179.82439 0 0 0 12.487805 22.852682c11.239024 16.483902 20.230244 24.97561 26.22439 24.97561s9.740488-18.357073 14.610732-55.071219l32.218537 17.23317c-9.365854 51.82439-23.227317 78.04878-41.209756 78.048781z" fill="#DCDFE6" p-id="4674"></path></svg>