<?xml version="1.0" encoding="UTF-8"?>
<svg width="16px" height="16px" viewBox="0 0 16 16" version="1.1" xmlns="http://www.w3.org/2000/svg" xmlns:xlink="http://www.w3.org/1999/xlink">
    <!-- Generator: Sketch 50 (54983) - http://www.bohemiancoding.com/sketch -->
    <title>成本额</title>
    <desc>Created with Sketch.</desc>
    <defs></defs>
    <g id="PC端页面" stroke="none" stroke-width="1" fill="none" fill-rule="evenodd">
        <g id="资料管理-文件-缩略" transform="translate(-376.000000, -285.000000)" fill="#409EFF" fill-rule="nonzero">
            <g id="侧边栏" transform="translate(360.000000, 97.000000)">
                <g id="成本额" transform="translate(16.000000, 188.000000)">
                    <path d="M6.81489162,11.4754286 L6.81489162,7.452 L8.49962905,7.452 L8.49962905,8.08914286 C8.84767819,7.79355188 9.23598285,7.54882357 9.6529162,7.36228571 L9.6529162,0.602857143 C9.6529162,0.275428571 9.38404469,0.00971428571 9.05110168,0.00971428571 L0.602815642,0.00971428571 C0.27101676,0.00971428571 0.00157318436,0.275428571 0.00157318436,0.602857143 L0.00157318436,12.7074286 C0.00157318436,13.0354286 0.270444693,13.3005714 0.602815642,13.3005714 L7.08033073,13.3005714 C6.87244435,12.7155734 6.7822396,12.0953312 6.81489162,11.4754286 Z M8.49962905,6.416 L6.81489162,6.416 L6.81489162,4.75485714 L8.49962905,4.75485714 L8.49962905,6.416 Z M1.15486034,1.23885714 L8.49962905,1.23885714 L8.49962905,3.38457143 L1.15486034,3.38457143 L1.15486034,1.23828571 L1.15486034,1.23885714 Z M2.83959777,11.8085714 L1.15486034,11.8085714 L1.15486034,10.1474286 L2.83959777,10.1474286 L2.83959777,11.8085714 Z M2.83959777,9.11142857 L1.15486034,9.11142857 L1.15486034,7.45028571 L2.83959777,7.45028571 L2.83959777,9.11142857 Z M2.83959777,6.416 L1.15486034,6.416 L1.15486034,4.75485714 L2.83959777,4.75485714 L2.83959777,6.416 Z M5.66846927,11.8085714 L3.98430391,11.8085714 L3.98430391,10.1474286 L5.66846927,10.1474286 L5.66846927,11.8085714 Z M5.66846927,9.11142857 L3.98430391,9.11142857 L3.98430391,7.45028571 L5.66846927,7.45028571 L5.66846927,9.11142857 Z M5.66846927,6.416 L3.98430391,6.416 L3.98430391,4.75485714 L5.66846927,4.75485714 L5.66846927,6.416 Z" id="Shape"></path>
                    <path d="M11.6608715,7.44 C10.9623034,7.43922286 10.2737335,7.60578446 9.6529162,7.92571429 C9.223002,8.14707327 8.83319233,8.43871796 8.49962905,8.78857143 C7.72367335,9.59971823 7.30150807,10.6851901 7.32574749,11.8068571 C7.3346673,12.3192434 7.43803023,12.825602 7.63065922,13.3005714 C8.29889569,14.9352635 9.89318878,16.0015357 11.6608715,15.996 C14.0566883,15.996 15.9982838,14.0817143 15.9982838,11.7188571 C15.9982838,9.35657143 14.0566883,7.44 11.6608715,7.44 Z M13.013238,11.756 L13.013238,12.2062857 L11.8977073,12.2062857 L11.8977073,12.8274286 L13.013238,12.8274286 L13.013238,13.284 L11.8977073,13.284 L11.8977073,14.1874286 L11.323352,14.1874286 L11.323352,13.284 L10.1666324,13.284 L10.1666324,12.8274286 L11.323352,12.8274286 L11.323352,12.2062857 L10.1666324,12.2062857 L10.1666324,11.756 L11.153448,11.756 L9.94981899,9.71714286 L10.5968268,9.71714286 C11.1591687,10.7297143 11.5006927,11.372 11.6219709,11.6428571 L11.6334123,11.6428571 C11.6746011,11.532 11.7867263,11.3062857 11.9709318,10.9674286 L12.6585564,9.71714286 L13.2706682,9.71714286 L12.0555978,11.756 L13.013238,11.756 Z" id="Shape"></path>
                </g>
            </g>
        </g>
    </g>
</svg>