<?xml version="1.0" encoding="UTF-8"?>
<svg width="534px" height="196px" viewBox="0 0 534 196" version="1.1" xmlns="http://www.w3.org/2000/svg" xmlns:xlink="http://www.w3.org/1999/xlink">
    <!-- Generator: Sketch 50 (54983) - http://www.bohemiancoding.com/sketch -->
    <title>手机端管理</title>
    <desc>Created with Sketch.</desc>
    <defs>
        <rect id="path-1" x="5" y="19" width="84" height="140" rx="1"></rect>
        <path d="M22.0306386,98.9999791 C22.0204274,98.999993 22.0102145,99 22,99 C9.8497355,99 0,89.1502645 0,77 C0,64.8497355 9.8497355,55 22,55 C22.489028,55 22.9743292,55.0159559 23.4554116,55.0473754 C26.0489712,39.6941213 39.4088314,28 55.5,28 C69.43193,28 81.3163872,36.766273 85.9383442,49.0837914 C86.6182275,49.0282939 87.3058096,49 88,49 C101.807119,49 113,60.1928813 113,74 C113,87.7893449 101.835917,98.9711785 88.0533086,98.9999444 L88.0533086,99.0441308 L22.0306386,99.0441308 L22.0306386,98.9999793 Z" id="path-3"></path>
    </defs>
    <g id="Page-1" stroke="none" stroke-width="1" fill="none" fill-rule="evenodd">
        <g id="官网首页" transform="translate(-1019.000000, -3335.000000)">
            <g id="5" transform="translate(0.000000, 3051.000000)">
                <g id="手机端管理" transform="translate(1019.000000, 284.000000)">
                    <g id="3" transform="translate(436.000000, 0.000000)">
                        <rect id="Rectangle-51" fill="#EDEEF0" x="4" y="6" width="94" height="185" rx="12"></rect>
                        <rect id="Rectangle-51" fill="#F0F5F8" x="0" y="0" width="94" height="185" rx="12"></rect>
                        <rect id="Rectangle-53" fill="#D5DCDE" x="38" y="9" width="18" height="2" rx="1"></rect>
                        <circle id="Oval-23" fill="#E0E6E8" cx="47" cy="171" r="8"></circle>
                        <mask id="mask-2" fill="white">
                            <use xlink:href="#path-1"></use>
                        </mask>
                        <use id="Rectangle-52" fill="#14D06F" xlink:href="#path-1"></use>
                        <g id="1" mask="url(#mask-2)">
                            <g transform="translate(10.000000, 32.000000)">
                                <rect id="Rectangle-54" fill="#FFFFFF" x="0" y="0" width="72" height="38" rx="1"></rect>
                                <rect id="Rectangle-55" fill="#E2E5E4" x="7" y="8" width="30" height="4" rx="2"></rect>
                                <rect id="Rectangle-55" fill="#EEEFEF" x="7" y="17" width="57" height="4" rx="2"></rect>
                                <rect id="Rectangle-55" fill="#EEEFEF" x="7" y="27" width="51" height="4" rx="2"></rect>
                            </g>
                        </g>
                        <g id="1" mask="url(#mask-2)">
                            <g transform="translate(10.000000, 78.000000)">
                                <rect id="Rectangle-54" fill="#FFFFFF" x="0" y="0" width="72" height="38" rx="1"></rect>
                                <rect id="Rectangle-55" fill="#E2E5E4" x="7" y="8" width="30" height="4" rx="2"></rect>
                                <rect id="Rectangle-55" fill="#EEEFEF" x="7" y="17" width="57" height="4" rx="2"></rect>
                                <rect id="Rectangle-55" fill="#EEEFEF" x="7" y="27" width="51" height="4" rx="2"></rect>
                            </g>
                        </g>
                        <g id="1" mask="url(#mask-2)">
                            <g transform="translate(10.000000, 124.000000)">
                                <rect id="Rectangle-54" fill="#FFFFFF" x="0" y="0" width="72" height="38" rx="1"></rect>
                                <rect id="Rectangle-55" fill="#E2E5E4" x="7" y="8" width="30" height="4" rx="2"></rect>
                                <rect id="Rectangle-55" fill="#EEEFEF" x="7" y="17" width="57" height="4" rx="2"></rect>
                                <rect id="Rectangle-55" fill="#EEEFEF" x="7" y="27" width="51" height="4" rx="2"></rect>
                            </g>
                        </g>
                    </g>
                    <g id="2" transform="translate(175.000000, 6.000000)">
                        <path d="M0.5,175.5 L254.501968,175.5" id="Line-8" stroke="#A2B2BA" stroke-linecap="square" stroke-dasharray="2,4"></path>
                        <path d="M131.977119,171.937031 L192.954239,171.937031 L192.954239,180.062969 L63,180.062969 L63,171.937031 L123.977119,171.937031 L123.977119,141 L131.977119,141 L131.977119,171.937031 Z" id="Combined-Shape" fill="#C2CAD6"></path>
                        <path d="M117,170 L117,161 C117,159.895431 117.895431,159 119,159 L137,159 C138.104569,159 139,159.895431 139,161 L139,170 L160,170 C161.104569,170 162,170.895431 162,172 L162,188 C162,189.104569 161.104569,190 160,190 L96,190 C94.8954305,190 94,189.104569 94,188 L94,172 C94,170.895431 94.8954305,170 96,170 L117,170 Z" id="Combined-Shape" fill="#EDEEF0"></path>
                        <path d="M117,165 L117,156 C117,154.895431 117.895431,154 119,154 L137,154 C138.104569,154 139,154.895431 139,156 L139,165 L160,165 C161.104569,165 162,165.895431 162,167 L162,183 C162,184.104569 161.104569,185 160,185 L96,185 C94.8954305,185 94,184.104569 94,183 L94,167 C94,165.895431 94.8954305,165 96,165 L117,165 Z" id="Combined-Shape" fill="#F0F5F8"></path>
                        <rect id="Rectangle-45" fill="#C2CAD6" x="60" y="19" width="136" height="112"></rect>
                        <g id="1" transform="translate(45.000000, 0.000000)">
                            <rect id="Rectangle-46" fill="#E2E3E6" opacity="0.5" x="5" y="6" width="160" height="38" rx="4"></rect>
                            <rect id="Rectangle-46" fill="#F0F5F8" x="0" y="0" width="160" height="38" rx="4"></rect>
                            <rect id="Rectangle-47" fill="#14D06F" x="17" y="15" width="14" height="6"></rect>
                            <rect id="Rectangle-47" fill="#FFBE58" x="38" y="15" width="14" height="6"></rect>
                        </g>
                        <g id="1" transform="translate(45.000000, 48.000000)">
                            <rect id="Rectangle-46" fill="#E2E3E6" opacity="0.5" x="5" y="6" width="160" height="38" rx="4"></rect>
                            <rect id="Rectangle-46" fill="#F0F5F8" x="0" y="0" width="160" height="38" rx="4"></rect>
                            <rect id="Rectangle-47" fill="#14D06F" x="17" y="15" width="14" height="6"></rect>
                            <rect id="Rectangle-47" fill="#FFBE58" x="38" y="15" width="14" height="6"></rect>
                        </g>
                        <g id="1" transform="translate(45.000000, 96.000000)">
                            <rect id="Rectangle-46" fill="#E2E3E6" opacity="0.5" x="5" y="6" width="160" height="38" rx="4"></rect>
                            <rect id="Rectangle-46" fill="#F0F5F8" x="0" y="0" width="160" height="38" rx="4"></rect>
                            <rect id="Rectangle-47" fill="#14D06F" x="17" y="15" width="14" height="6"></rect>
                            <rect id="Rectangle-47" fill="#FFBE58" x="38" y="15" width="14" height="6"></rect>
                        </g>
                    </g>
                    <g id="1" transform="translate(1.000000, 68.000000)">
                        <path d="M109.516425,27 L169,27 C170.104569,27 171,27.8954305 171,29 L171,120 C171,121.104569 170.104569,122 169,122 L31,122 C29.8954305,122 29,121.104569 29,120 L29,29 L29,6 C29,4.8954305 29.8954305,4 31,4 L91.0091986,4 C91.6335266,4 92.2220395,4.29154966 92.6003083,4.78823683 L109.516425,27 Z" id="Combined-Shape" fill="#EDEEF0"></path>
                        <path d="M105.516425,23 L165,23 C166.104569,23 167,23.8954305 167,25 L167,116 C167,117.104569 166.104569,118 165,118 L27,118 C25.8954305,118 25,117.104569 25,116 L25,25 L25,2 C25,0.8954305 25.8954305,2.02906125e-16 27,0 L87.0091986,1.55431223e-14 C87.6335266,1.54284352e-14 88.2220395,0.291549663 88.6003083,0.788236827 L105.516425,23 Z" id="Combined-Shape" fill="#F0F5F8"></path>
                        <path d="M26.0306386,102.999979 C26.0204274,102.999993 26.0102145,103 26,103 C13.8497355,103 4,93.1502645 4,81 C4,68.8497355 13.8497355,59 26,59 C26.489028,59 26.9743292,59.0159559 27.4554116,59.0473754 C30.0489712,43.6941213 43.4088314,32 59.5,32 C73.43193,32 85.3163872,40.766273 89.9383442,53.0837914 C90.6182275,53.0282939 91.3058096,53 92,53 C105.807119,53 117,64.1928813 117,78 C117,91.7893449 105.835917,102.971179 92.0533086,102.999944 L92.0533086,103.044131 L26.0306386,103.044131 L26.0306386,102.999979 Z" id="Combined-Shape" fill="#E9EBED"></path>
                        <mask id="mask-4" fill="white">
                            <use xlink:href="#path-3"></use>
                        </mask>
                        <path stroke="#EFF1F2" stroke-width="0.5" d="M21.7806386,99.2489411 C9.59333142,99.131231 -0.25,89.2151321 -0.25,77 C-0.25,64.7116643 9.71166432,54.75 22,54.75 C22.4171597,54.75 22.8329549,54.7614829 23.2470771,54.7843662 C25.9803599,39.2510604 39.534819,27.75 55.5,27.75 C69.2007878,27.75 81.3034365,36.2411546 86.1058024,48.8199908 C86.7338252,48.7734075 87.3655071,48.75 88,48.75 C101.94519,48.75 113.25,60.0548101 113.25,74 C113.25,87.8418488 102.110826,99.0856981 88.3033086,99.2482157 L88.3033086,99.2941308 L21.7806386,99.2941308 L21.7806386,99.2489411 Z"></path>
                        <path d="M16.0306386,98.9999791 C16.0204274,98.999993 16.0102145,99 16,99 C3.8497355,99 -6,89.1502645 -6,77 C-6,64.8497355 3.8497355,55 16,55 C16.489028,55 16.9743292,55.0159559 17.4554116,55.0473754 C20.0489712,39.6941213 33.4088314,28 49.5,28 C63.43193,28 75.3163872,36.766273 79.9383442,49.0837914 C80.6182275,49.0282939 81.3058096,49 82,49 C95.8071187,49 107,60.1928813 107,74 C107,87.7893449 95.8359173,98.9711785 82.0533086,98.9999444 L82.0533086,99.0441308 L16.0306386,99.0441308 L16.0306386,98.9999793 Z" id="Combined-Shape" fill="#FFFFFF" mask="url(#mask-4)"></path>
                    </g>
                </g>
            </g>
        </g>
    </g>
</svg>