<?xml version="1.0" standalone="no"?><!DOCTYPE svg PUBLIC "-//W3C//DTD SVG 1.1//EN" "http://www.w3.org/Graphics/SVG/1.1/DTD/svg11.dtd"><svg t="1524805268766" class="icon" style="" viewBox="0 0 1024 1024" version="1.1" xmlns="http://www.w3.org/2000/svg" p-id="2659" xmlns:xlink="http://www.w3.org/1999/xlink" width="200" height="200"><defs><style type="text/css"></style></defs><path d="M560.214797 0H56.242234C25.286428 0 0 27.142773 0 60.205781s25.085742 60.205781 56.242234 60.205782h503.972563c30.955806 0 56.292406-27.192945 56.292405-60.205782s-25.3366-60.205781-56.292405-60.205781zM560.214797 451.543361H56.242234C25.286428 451.543361 0 478.736306 0 511.749143s25.085742 60.205781 56.242234 60.205781h503.972563c30.955806 0 56.292406-27.192945 56.292405-60.205781s-25.3366-60.205781-56.292405-60.205782zM560.214797 903.136894H56.242234c-30.955806 0-56.242234 27.142773-56.242234 60.205781s25.085742 60.205781 56.242234 60.205782h503.972563c30.955806 0 56.292406-27.192945 56.292405-60.205782s-25.3366-60.205781-56.292405-60.205781zM1006.339637 726.733954a60.556982 60.556982 0 0 0-85.291523 0l-89.255071 89.104557V60.707496a60.607153 60.607153 0 0 0-60.205782-60.205781h-3.71269a60.607153 60.607153 0 0 0-60.205781 60.205781v903.086723a60.607153 60.607153 0 0 0 60.205781 60.205781h3.71269a59.453209 59.453209 0 0 0 46.358452-23.229397l188.59461-188.594611a60.556982 60.556982 0 0 0-0.200686-85.442038z" fill="" p-id="2660"></path></svg>