<?xml version="1.0" encoding="UTF-8"?>
<svg width="386px" height="203px" viewBox="0 0 386 203" version="1.1" xmlns="http://www.w3.org/2000/svg" xmlns:xlink="http://www.w3.org/1999/xlink">
    <!-- Generator: Sketch 50 (54983) - http://www.bohemiancoding.com/sketch -->
    <title>插图</title>
    <desc>Created with Sketch.</desc>
    <defs></defs>
    <g id="Page-1" stroke="none" stroke-width="1" fill="none" fill-rule="evenodd">
        <g id="官网首页" transform="translate(-768.000000, -1676.000000)">
            <g id="3" transform="translate(0.000000, 1297.000000)">
                <g id="插图" transform="translate(768.000000, 379.000000)">
                    <g id="黑板">
                        <g transform="translate(48.000000, 0.000000)">
                            <circle id="Oval-3" stroke="#AAB2B8" stroke-width="8" cx="111" cy="191" r="8"></circle>
                            <rect id="Rectangle-9" fill="#AAB2B8" x="107" y="162" width="8" height="19"></rect>
                            <rect id="Rectangle-7" stroke="#E5E9EA" fill="#FFFFFF" x="0.5" y="8.5" width="219" height="153"></rect>
                            <path d="M95,8 L95,0 L125,0 L125,8 L220,8 L220,20 L0,20 L0,8 L95,8 Z" id="Combined-Shape" fill="#AAB2B8"></path>
                        </g>
                        <g id="统计" transform="translate(100.000000, 35.000000)">
                            <g id="2" transform="translate(5.000000, 36.000000)" fill="#14D06F">
                                <rect id="Rectangle-8" x="0" y="38" width="16" height="30"></rect>
                                <rect id="Rectangle-8" x="33" y="12" width="16" height="56"></rect>
                                <rect id="Rectangle-8" x="66" y="38" width="16" height="30"></rect>
                                <rect id="Rectangle-8" x="99" y="0" width="16" height="68"></rect>
                            </g>
                            <g id="1" stroke="#FFC66D" stroke-width="4">
                                <circle id="Oval-2" cx="9" cy="51" r="7"></circle>
                                <circle id="Oval-2" cx="44" cy="20" r="7"></circle>
                                <circle id="Oval-2" cx="77" cy="39" r="7"></circle>
                                <circle id="Oval-2" cx="110" cy="9" r="7"></circle>
                                <path d="M15.5,45.5 L38.5,24.5" id="Line" stroke-linecap="square"></path>
                                <path d="M50.5,23.5 L70.5,35.5" id="Line-2" stroke-linecap="square"></path>
                                <path d="M83,34 L104.5,14.5" id="Line-3" stroke-linecap="square"></path>
                            </g>
                        </g>
                        <g id="头像" transform="translate(0.000000, 83.000000)">
                            <circle id="Oval-4" fill="#E8ECEC" cx="43" cy="41" r="40"></circle>
                            <circle id="Oval-4" fill="#FFFFFF" cx="40" cy="40" r="40"></circle>
                            <path d="M15.7941744,63.2831013 C21.6517636,55.8053667 30.764705,51 41,51 C51.235295,51 60.3482364,55.8053667 66.2058256,63.2831013 C59.839374,69.889934 50.8996657,74 41,74 C31.1003343,74 22.160626,69.889934 15.7941744,63.2831013 Z" id="Combined-Shape" fill="#14D06F"></path>
                            <circle id="Oval-5" fill="#14D06F" cx="42" cy="32" r="13"></circle>
                        </g>
                    </g>
                    <g id="网页" transform="translate(251.000000, 71.000000)">
                        <g id="网站">
                            <rect id="Rectangle-10" stroke="#E2E7E8" fill="#FFFFFF" x="0.5" y="0.5" width="134" height="113"></rect>
                            <rect id="Rectangle-11" fill="#AAB2B8" x="0" y="0" width="135" height="10"></rect>
                        </g>
                        <g id="1" transform="translate(11.000000, 23.000000)" fill="#E8EEF0">
                            <path d="M16,3 L16,19 L32,19 C32,27.836556 24.836556,35 16,35 C7.163444,35 0,27.836556 0,19 C0,10.163444 7.163444,3 16,3 Z" id="Combined-Shape"></path>
                            <path d="M19,0 C27.836556,0 35,7.163444 35,16 L19,16 L19,0 Z" id="Combined-Shape"></path>
                            <rect id="Rectangle-13" x="51" y="10" width="28" height="3"></rect>
                            <rect id="Rectangle-13" x="51" y="17" width="65" height="3"></rect>
                            <rect id="Rectangle-13" x="51" y="24" width="43" height="3"></rect>
                        </g>
                        <g id="2" transform="translate(15.000000, 67.000000)" fill="#E8EEF0">
                            <path d="M22.5699728,6.31584396 C20.6613398,13.5612191 12.6246045,19 3,19 C2.54542213,19 2.09438641,18.9878674 1.64737118,18.963985 C8.28854481,16.9812889 13.6473548,12.3094485 16.2631903,6.31584396 L13.0179878,6.31584396 L19.601899,0.38414612 L25.4332082,6.31584396 L22.5699728,6.31584396 Z" id="Combined-Shape"></path>
                            <rect id="Rectangle-13" x="47" y="8" width="28" height="3"></rect>
                            <rect id="Rectangle-13" x="47" y="17" width="65" height="3"></rect>
                            <rect id="Rectangle-13" x="47" y="23" width="43" height="3"></rect>
                            <rect id="Rectangle-14" x="0" y="28" width="5" height="6"></rect>
                            <rect id="Rectangle-14" x="9" y="22" width="5" height="12"></rect>
                            <rect id="Rectangle-14" x="18" y="16" width="5" height="18"></rect>
                            <rect id="Rectangle-14" x="27" y="11" width="5" height="23"></rect>
                        </g>
                    </g>
                </g>
            </g>
        </g>
    </g>
</svg>