<?xml version="1.0" standalone="no"?><!DOCTYPE svg PUBLIC "-//W3C//DTD SVG 1.1//EN" "http://www.w3.org/Graphics/SVG/1.1/DTD/svg11.dtd"><svg t="1524806837060" class="icon" style="" viewBox="0 0 1247 1024" version="1.1" xmlns="http://www.w3.org/2000/svg" p-id="2897" xmlns:xlink="http://www.w3.org/1999/xlink" width="243.5546875" height="200"><defs><style type="text/css"></style></defs><path d="M63.301005 0h347.59633a190.126693 190.126693 0 0 1 190.126693 190.126693v462.343381A63.301005 63.301005 0 0 1 536.828309 715.771079H63.301005A63.301005 63.301005 0 0 1 0 652.470074V63.301005A63.301005 63.301005 0 0 1 63.301005 0z" fill="#EDC148" p-id="2898"></path><path d="M0 136.443862h1184.377457a63.301005 63.301005 0 0 1 63.301005 63.301005v760.506771a63.301005 63.301005 0 0 1-63.301005 63.301005H63.301005A63.301005 63.301005 0 0 1 0 960.698995V136.443862z" fill="#FFD758" p-id="2899"></path></svg>