<svg width="926" height="212" viewBox="0 0 926 212" xmlns="http://www.w3.org/2000/svg"><defs><linearGradient x1="50%" y1="-35.249%" x2="50%" y2="59.598%" id="a"><stop stop-color="#33FFAB" offset="0%"/><stop stop-color="#33FFB8" stop-opacity="0" offset="100%"/></linearGradient><linearGradient x1="50%" y1="-6.556%" x2="50%" y2="81.493%" id="b"><stop stop-color="#33FFAB" offset="0%"/><stop stop-color="#33FFB8" stop-opacity="0" offset="100%"/></linearGradient><linearGradient x1="50%" y1="-15.543%" x2="50%" y2="71.695%" id="c"><stop stop-color="#33FFAB" offset="0%"/><stop stop-color="#33FFB8" stop-opacity="0" offset="100%"/></linearGradient></defs><g fill="none" fill-rule="evenodd"><path d="M8.163 228.374c12.863-15.788 22.797-43.727 58.652-43.647 35.856.08 29.788 32.501 66.304 32.501 36.515 0 57.264-61.3 86.202-61.3 28.937 0 27.882 51.186 56.311 51.186 28.43 0 35.945-77.196 62.842-77.196s54.05 75.034 87.462 75.034c33.412 0 49.085-40.615 73.01-40.615 25.842 0 27.22 23.744 44.63 20.39 17.408-3.355 12.058-93.863 44.178-93.863 32.119 0 28.324 98.958 58.948 98.958 30.623 0 35.8-28.934 67.44-28.934s66.31 46.947 107.537 46.947c41.226 0 44.875-14.187 71.41-14.187 26.536 0 61.6 20.5 61.6 33.84v32.988H5.099C-1.434 249.6-.412 238.9 8.163 228.374z" fill="url(#a)" transform="translate(-18)"/><path d="M8.163 228.374c15.198-29.152 34.749-43.7 58.652-43.647 35.856.08 29.788 32.501 66.304 32.501 36.515 0 53.69-90.562 108.07-90.562 54.38 0 51.075 58.06 79.504 58.06 28.43 0 21.822-183.865 55.53-183.865 33.707 0 28.013 155.067 46.824 155.067 18.811 0 15.95-37.241 40.68-37.241 37.07 0 37.324 72.055 80.628 72.055 43.303 0 49.175-123.589 85.635-123.589 36.459 0 31.828 133.621 53.682 133.621 21.853 0 36.94-78.856 63.779-78.856 26.838 0 33.001 85.917 74.228 85.917 41.226 0 44.875-14.187 71.41-14.187 26.536 0 61.6 20.5 61.6 33.84v32.988H5.099l3.064-32.102z" fill="url(#b)" transform="translate(-18)"/><path d="M8.163 228.374c15.198-29.152 34.749-43.7 58.652-43.647 35.856.08 29.788 32.501 66.304 32.501 36.515 0 58.132-57.216 108.07-57.216 49.938 0 47.47 37.947 75.9 37.947 28.429 0 33.739-109.284 60.636-109.284 26.897 0 31.567 96.74 48.695 96.74 17.127 0 18.306-21.962 38.831-22.592 39.89-1.225 35.218 44.29 78.522 44.29s55.727-80.447 82.818-80.447c27.09 0 35.227 74.108 57.08 74.108 21.854 0 41.369-44.846 63.78-44.846 22.41 0 33.001 51.907 74.228 51.907 41.226 0 44.875-14.187 71.41-14.187 26.536 0 61.6 20.5 61.6 33.84v32.988H5.099l3.064-32.102z" fill="url(#c)" transform="translate(-18)"/></g></svg>