<?xml version="1.0" encoding="UTF-8"?>
<svg width="16px" height="16px" viewBox="0 0 16 16" version="1.1" xmlns="http://www.w3.org/2000/svg" xmlns:xlink="http://www.w3.org/1999/xlink">
    <!-- Generator: Sketch 50 (54983) - http://www.bohemiancoding.com/sketch -->
    <title>物资</title>
    <desc>Created with Sketch.</desc>
    <defs></defs>
    <g id="PC端页面" stroke="none" stroke-width="1" fill="none" fill-rule="evenodd">
        <g id="资料管理-文件-缩略" transform="translate(-376.000000, -491.000000)" fill="#409EFF" fill-rule="nonzero">
            <g id="侧边栏" transform="translate(360.000000, 97.000000)">
                <g id="物资" transform="translate(16.000000, 394.000000)">
                    <path d="M14.0653325,10.6539617 L6.51207158,10.6539617 C5.9002096,10.6539617 5.33061848,10.1514375 5.24629531,9.53726378 L4.40000402,1.77239929 C4.31568085,1.15824404 4.73959142,0.744408139 5.34201942,0.852809121 L15.0456303,2.59876058 C15.6480765,2.70718002 16.0638461,3.29711901 15.9695244,3.90981615 L15.3492301,9.53997702 C15.2549266,10.1526557 14.6771763,10.6539617 14.0653325,10.6539617 Z M4.5742051,11.3266088 L3.35476104,0.504202053 C3.31778997,0.224330792 3.0993511,0.016702243 2.85373939,0.0140443629 C2.82591092,0.00994679469 2.79737217,0.00787955862 2.76835992,0.00787955862 L0.561934185,0.00787955862 C0.258571141,0.00787955862 0.0102275773,0.23444553 0.0102275773,0.511529693 C0.0102275773,0.788447753 0.258552917,1.01508755 0.561934185,1.01508755 L2.42054053,1.01508755 L3.64031242,11.8396539 C3.67903187,12.1322793 3.91533706,12.345279 4.17382489,12.3294055 C4.18249397,12.3297624 7.3887593,12.3301069 13.7926209,12.3304391 C14.096166,12.3304391 14.344455,12.1048145 14.344455,11.8288008 C14.3444732,11.5526026 14.096166,11.3266088 13.7926208,11.3266088 L4.5742051,11.3266088 Z M7.32018979,14.8779225 C7.32018979,15.4941081 6.82628917,15.9936053 6.21692229,15.9936053 C5.60751897,15.9936053 5.11365478,15.4940897 5.11365478,14.8779225 C5.11365478,14.2618662 5.60751897,13.762129 6.21692229,13.762129 C6.82632561,13.7620921 7.32018979,14.2618662 7.32018979,14.8779225 Z M13.3037104,14.8779225 C13.3037104,15.4941081 12.8098098,15.9936053 12.2007525,15.9936053 C11.5911671,15.9936053 11.0972118,15.4940897 11.0972118,14.8779225 C11.0972118,14.2618662 11.5911671,13.762129 12.2007525,13.762129 C12.8098098,13.7620921 13.3037104,14.2618662 13.3037104,14.8779225 Z" id="Shape"></path>
                </g>
            </g>
        </g>
    </g>
</svg>