<?xml version="1.0" encoding="UTF-8"?>
<svg width="17px" height="17px" viewBox="0 0 17 17" version="1.1" xmlns="http://www.w3.org/2000/svg" xmlns:xlink="http://www.w3.org/1999/xlink">
    <!-- Generator: Sketch 50 (54983) - http://www.bohemiancoding.com/sketch -->
    <title>生产</title>
    <desc>Created with Sketch.</desc>
    <defs></defs>
    <g id="PC端页面" stroke="none" stroke-width="1" fill="none" fill-rule="evenodd">
        <g id="资料管理-文件-缩略" transform="translate(-375.000000, -167.000000)" fill="#409EFF" fill-rule="nonzero">
            <g id="侧边栏" transform="translate(360.000000, 97.000000)">
                <g id="生产" transform="translate(15.000000, 70.000000)">
                    <path d="M13.8343554,2.13308516 C13.7328738,2.39415854 13.4922155,2.52358523 13.1856576,2.48310701 C13.0408758,2.46397791 12.8987801,2.43300875 12.7639549,2.37465944 C12.70683,2.34994331 12.6662517,2.35847185 12.6162362,2.39861707 C12.4150101,2.56019692 12.1944618,2.68105806 11.937239,2.71903876 C11.8054222,2.73853786 11.6796402,2.72048177 11.5577799,2.66853349 C11.529701,2.65656393 11.5081762,2.63882233 11.4917551,2.68518358 C11.4061216,2.92686886 11.2252025,3.07461064 11.0115844,3.18257721 C10.9355494,3.22102041 10.9108729,3.26394064 10.9185373,3.35000309 C10.9295504,3.47384275 10.9148483,3.5964429 10.8467284,3.70631498 C10.8232696,3.74412918 10.7958174,3.77470984 10.7579432,3.79585545 C10.6527189,3.85461176 10.6207362,3.83896068 10.6046016,3.71948705 C10.551488,3.32658197 10.5349774,2.9340284 10.6270754,2.54445334 C10.6682984,2.37008991 10.7380301,2.20965707 10.8736254,2.08923993 C10.9056081,2.06084228 10.9149379,2.0274496 10.9218143,1.98582438 C10.9659562,1.71868297 11.0530044,1.46946815 11.228605,1.26193406 C11.4940831,0.948227899 11.8409327,0.840834831 12.2297395,0.860111933 C12.3367724,0.865421461 12.399162,0.844812352 12.4626976,0.74609583 C12.7558249,0.290586423 13.2360492,0.106972952 13.7491696,0.243078171 C13.8252047,0.263243278 13.8887583,0.258877255 13.9607284,0.222228561 C14.1999721,0.100405417 14.4515002,0.0172474777 14.7203091,0.00241039929 C15.2403418,-0.0263017525 15.5910594,0.201304951 15.7964938,0.695461063 C15.8809096,0.898536636 15.9268243,1.11458078 15.9811556,1.32570389 C16.0474311,1.58316975 15.9324115,1.79852939 15.7376499,1.95866624 C15.6565649,2.02534059 15.6356848,2.09049794 15.6425613,2.19335848 C15.6596629,2.44917783 15.5977568,2.67824604 15.3794112,2.83349886 C15.2707487,2.91075527 15.1472051,2.94555396 15.0173402,2.96299955 C14.8191583,2.98958419 14.6205288,2.98231365 14.4296711,2.93030988 C14.1076233,2.84256391 13.8181313,2.58472805 13.851851,2.13097615 C13.8439717,2.11397456 13.8395486,2.12686913 13.8343554,2.13308516 Z M13.8362769,2.18603092 C13.8256249,2.14242888 13.8429344,2.10783033 13.8921011,2.08675667 C13.8997942,2.08345408 13.9256351,2.09210372 13.9283967,2.09898411 C13.9429446,2.13515532 13.9238598,2.16236236 13.884408,2.18150952 L13.8596521,2.17895394 L13.8362769,2.18603092 Z M13.2730282,9.86379502 C13.2730998,9.79034964 13.2539925,9.75299794 13.1885228,9.72051177 C12.655955,9.45621937 12.1264671,9.18526694 11.5932009,8.92252855 C11.5182581,8.88560235 11.5009058,8.84242313 11.5010133,8.76394571 C11.5029831,7.25548474 11.5015505,5.74704226 11.504738,4.23858129 C11.5049171,4.14454529 11.4792199,4.12456519 11.3928701,4.12554569 C10.9720448,4.13030022 10.5510941,4.12486119 10.1302508,4.13050372 C10.0414836,4.13168773 10.0243103,4.10447408 10.0255996,4.01872613 C10.0305958,3.68766688 10.0255638,3.35647813 10.0292349,3.02538188 C10.0300228,2.9537865 10.0088204,2.93611891 9.94206134,2.93732141 C9.71549614,2.94144693 9.48869815,2.94361145 9.26227621,2.93656291 C9.17123468,2.93371389 9.14362137,2.9545635 9.14385417,3.05470453 C9.14738194,4.55648697 9.14630749,6.05828791 9.1463254,7.56008885 L9.1463254,7.68653702 C9.10218351,7.66559491 9.0731197,7.65249684 9.04464684,7.63815926 C6.74559746,6.48160715 4.4465839,5.32509203 2.14800012,4.16761492 C2.09417029,4.14051227 2.04123584,4.1266557 1.98110258,4.1268037 C1.35623964,4.12837621 0.731394604,4.12985622 0.106549568,4.1261007 C0.0217577406,4.12560119 -7.14543161e-05,4.1463583 1.75527723e-07,4.23565828 C0.00243559022,8.12225132 0.00234605291,12.0088444 0.000268787442,15.8954374 C0.00023297252,15.9784843 0.0203251437,15.999778 0.100908718,15.9997595 C4.45872516,15.9976504 8.8165416,15.9976134 13.1743401,16 C13.2580217,16.000037 13.2731177,15.9751358 13.2730102,15.8943829 C13.2707897,13.8841808 13.2708255,11.8739971 13.2730102,9.86379502 L13.2730282,9.86379502 Z M2.56255784,14.8130707 C2.23241452,14.8091665 1.90223852,14.8092097 1.57209617,14.8132002 C1.49761904,14.8141252 1.47478703,14.7964946 1.47514518,14.7153902 C1.47842225,13.9563312 1.47707919,13.1972351 1.47707919,12.4381391 C1.47707919,11.6790616 1.47861923,10.9199656 1.47496611,10.1609066 C1.47455423,10.0748441 1.49853232,10.057713 1.57709236,10.0588601 C1.90395724,10.0636516 2.23094748,10.0635406 2.55781236,10.0589341 C2.63581726,10.057824 2.66095934,10.0748441 2.66078026,10.1610176 C2.65809414,11.6791726 2.65811205,13.1973461 2.66078026,14.7155012 C2.66095934,14.7983261 2.63588889,14.8139032 2.56255784,14.8130707 Z M4.42928529,14.7249547 C4.42937483,14.7966981 4.40899614,14.8136997 4.34212968,14.8130152 C4.00552314,14.8095927 3.66880915,14.8085937 3.33225633,14.8135332 C3.25432306,14.8146802 3.2440979,14.786412 3.24433069,14.7160377 C3.24664076,13.9535931 3.24576329,13.1911486 3.24576329,12.4286856 C3.24576329,11.6729381 3.24726752,10.9171906 3.24370393,10.1614431 C3.24329206,10.0758246 3.26675083,10.0577315 3.34575855,10.0588601 C3.67586469,10.0636516 4.00606036,10.0628376 4.33622022,10.0592671 C4.40485952,10.0585271 4.4297867,10.0707001 4.42966135,10.1502875 C4.4272179,11.6751755 4.42709255,13.2000664 4.42928529,14.7249547 Z M6.1106168,14.8129782 C5.78049276,14.8095927 5.45026127,14.8084642 5.12017304,14.8134777 C5.03720778,14.8147542 5.01174337,14.7971606 5.01226268,14.7052151 C5.01650675,13.9494861 5.01466228,13.1937571 5.01466228,12.4379911 C5.01468019,11.6822621 5.01587999,10.9264961 5.01296108,10.1707671 C5.01265665,10.0882197 5.02402789,10.0562145 5.11582153,10.0581386 C5.44907938,10.0651501 5.78257003,10.0623936 6.11595323,10.0595631 C6.1770893,10.0590451 6.19814847,10.0728276 6.19804103,10.1410745 C6.19607121,11.6692936 6.1960533,13.1974756 6.19813056,14.7256947 C6.19823801,14.7982706 6.17669533,14.8136442 6.1106168,14.8129782 Z" id="Shape"></path>
                </g>
            </g>
        </g>
    </g>
</svg>