<?xml version="1.0" encoding="UTF-8"?>
<svg width="16px" height="16px" viewBox="0 0 16 16" version="1.1" xmlns="http://www.w3.org/2000/svg" xmlns:xlink="http://www.w3.org/1999/xlink">
    <!-- Generator: Sketch 50 (54983) - http://www.bohemiancoding.com/sketch -->
    <title>统计</title>
    <desc>Created with Sketch.</desc>
    <defs></defs>
    <g id="PC端页面" stroke="none" stroke-width="1" fill="none" fill-rule="evenodd">
        <g id="资料管理-文件-缩略" transform="translate(-376.000000, -372.000000)" fill="#409EFF" fill-rule="nonzero">
            <g id="侧边栏" transform="translate(360.000000, 97.000000)">
                <g id="统计" transform="translate(16.000000, 275.000000)">
                    <path d="M0.388513333,7.45344001 L6.60905305,9.68704 L13.4123628,2.91285333 L14.6107836,4.0256 L15.6543183,0 L11.5061381,1.14346667 L12.704559,2.25578666 L6.34903466,8.58368 L0.732897081,6.56725334 C0.478935696,6.47594667 0.195121946,6.60010667 0.100373147,6.84501334 C0.00475906907,7.08949334 0.134119302,7.36170667 0.388513333,7.45344001 Z M0,15.9700206 L3.51089719,15.9700206 L3.51089719,10.5514667 L0,9.29109333 L0,15.9700206 Z M4.16289005,10.7861333 L4.16289005,15.9700206 L7.67378724,15.9700206 L7.67378724,11.0148267 L6.91233572,11.7730133 L4.16289005,10.7861333 Z M8.32621274,15.9700206 L11.8371099,15.9700206 L11.8371099,6.86976001 L8.32621274,10.36544 L8.32621274,15.9700206 Z M13.4409172,5.27274666 L12.4895355,6.22037334 L12.4895355,15.9704472 L16,15.9704472 L16,7.9872 L13.4409172,5.27274666 Z" id="Shape"></path>
                </g>
            </g>
        </g>
    </g>
</svg>