<?xml version="1.0" standalone="no"?><!DOCTYPE svg PUBLIC "-//W3C//DTD SVG 1.1//EN" "http://www.w3.org/Graphics/SVG/1.1/DTD/svg11.dtd"><svg t="1524805257038" class="icon" style="" viewBox="0 0 1024 1024" version="1.1" xmlns="http://www.w3.org/2000/svg" p-id="2421" xmlns:xlink="http://www.w3.org/1999/xlink" width="200" height="200"><defs><style type="text/css"></style></defs><path d="M357.238473 100.347886v254.432064H102.856583V100.347886h254.38189m40.139155-100.347886H62.717429a60.208731 60.208731 0 0 0-60.208732 60.208731v334.710373a60.208731 60.208731 0 0 0 60.208732 60.208732h334.660199a60.208731 60.208731 0 0 0 60.208731-60.208732V60.208731a60.208731 60.208731 0 0 0-60.208731-60.208731zM923.652114 100.347886v254.432064h-254.432064V100.347886h254.432064m40.139155-100.347886h-334.710373a60.208731 60.208731 0 0 0-60.208732 60.208731v334.710373a60.208731 60.208731 0 0 0 60.208732 60.208732h334.710373a60.208731 60.208731 0 0 0 60.208731-60.208732V60.208731a60.208731 60.208731 0 0 0-60.208731-60.208731zM354.729776 669.270224v254.331716H100.347886v-254.331716h254.38189m40.139154-100.347886H60.208731a60.208731 60.208731 0 0 0-60.208731 60.208732v334.610025a60.208731 60.208731 0 0 0 60.208731 60.208731h334.660199a60.208731 60.208731 0 0 0 60.208732-60.208731v-334.610025a60.208731 60.208731 0 0 0-60.208732-60.208732zM923.652114 669.270224v254.331716h-254.432064v-254.331716h254.432064m40.139155-100.347886h-334.710373a60.208731 60.208731 0 0 0-60.208732 60.208732v334.610025a60.208731 60.208731 0 0 0 60.208732 60.208731h334.710373a60.208731 60.208731 0 0 0 60.208731-60.208731v-334.610025a60.208731 60.208731 0 0 0-60.208731-60.208732z" fill="" p-id="2422"></path></svg>