<?xml version="1.0" encoding="UTF-8"?>
<svg width="42px" height="44px" viewBox="0 0 42 44" version="1.1" xmlns="http://www.w3.org/2000/svg" xmlns:xlink="http://www.w3.org/1999/xlink">
    <!-- Generator: Sketch 50 (54983) - http://www.bohemiancoding.com/sketch -->
    <title>考勤</title>
    <desc>Created with Sketch.</desc>
    <defs></defs>
    <g id="Page-1" stroke="none" stroke-width="1" fill="none" fill-rule="evenodd">
        <g id="官网首页" transform="translate(-1224.000000, -3641.000000)" fill-rule="nonzero">
            <g id="5" transform="translate(0.000000, 3051.000000)">
                <g id="四块" transform="translate(360.000000, 539.000000)">
                    <g id="3" transform="translate(810.000000, 0.000000)">
                        <g id="考勤" transform="translate(54.000000, 51.000000)">
                            <path d="M20.500024,1 C9.19609359,1 0,10.6446722 0,22.5 C0,28.1089166 2.07521892,33.2065596 5.44138779,37.0386208 L1.80544958,40.8519174 C1.18043275,41.5076233 1.18043275,42.5703156 1.80544958,43.2248645 C2.42955502,43.8803691 3.44286891,43.8803691 4.06793369,43.2248645 L7.78119552,39.3304725 C11.2801385,42.2449278 15.6948774,44 20.499976,44 C25.3052665,44 29.7201972,42.2448271 33.2192361,39.3301706 L36.9328338,43.2249148 C37.5577547,43.8804195 38.5702531,43.8804195 39.1953179,43.2249148 C39.8203347,42.570366 39.8203347,41.5076234 39.1953179,40.8519678 L35.5589,37.0382687 C38.924925,33.2062075 41,28.1087657 41,22.5000503 C41.000048,10.6446722 31.8039065,1 20.500024,1 Z M3.20000936,22.4999497 C3.20000936,12.4955799 10.9609626,4.3560531 20.500024,4.3560531 C30.0390854,4.3560531 37.8000386,12.4955799 37.8000386,22.4999497 C37.8000386,32.5043194 30.0390854,40.6438462 20.500024,40.6438462 C10.9609626,40.6438462 3.20000936,32.5043697 3.20000936,22.4999497 Z" id="Shape" fill="#89E5B9"></path>
                            <path d="M2.82851736,7.51455165 L7.51454712,2.82856557 C8.16181763,2.18110241 8.16181763,1.13176899 7.51454712,0.485448354 C6.86802177,-0.161816118 5.81862886,-0.161816118 5.17150743,0.485448354 L0.485378352,5.17153376 C-0.161792784,5.81869886 -0.161792784,6.86803227 0.485378352,7.5145516 C1.13170497,8.16181612 2.18104816,8.16181612 2.82851736,7.51455165 Z" id="Shape" fill="#32C27D"></path>
                            <path d="M39.1714344,7.51455164 C39.8188976,8.16181612 40.8673369,8.16181612 41.5145516,7.51455164 C42.1618161,6.86803231 42.1618161,5.81864918 41.5145516,5.17153378 L36.8284662,0.485448357 C36.1811024,-0.161816119 35.1325638,-0.161816119 34.4854484,0.485448357 C33.8381839,1.131769 33.8381839,2.18115208 34.4854484,2.82856558 L39.1714344,7.51455164 Z" id="Shape" fill="#32C27D"></path>
                            <path d="M29.3202539,10.5022545 L22.700891,17.7423978 C22.1289646,17.448866 21.4976057,17.2724278 20.8252605,17.2724278 C20.1743731,17.2724278 19.5603781,17.4347633 19.0027099,17.7108469 L14.6794755,12.9820658 C14.0661393,12.3113124 13.0721149,12.3113124 12.459861,12.9820658 C11.846713,13.6518414 11.846713,14.7391393 12.459861,15.4096355 L16.7820602,20.1372841 C16.5281896,20.748693 16.3785495,21.4220714 16.3785495,22.1362139 C16.3785495,24.8178895 18.3735156,27 20.8253075,27 C23.2770995,27 25.2720656,24.817941 25.2720656,22.1362139 C25.2720656,21.4462107 25.1359307,20.7918246 24.8979653,20.1965258 L31.5412331,12.9309049 C32.1529223,12.2602544 32.1529223,11.1730079 31.5412331,10.5022545 C30.9281792,9.83258185 29.9332608,9.83258185 29.3202539,10.5022545 Z M20.8253075,23.5663002 C20.1041175,23.5663002 19.5177918,22.9249874 19.5177918,22.1361624 C19.5177918,21.3473374 20.1041175,20.7060246 20.8253075,20.7060246 C21.5464976,20.7060246 22.1328232,21.3473374 22.1328232,22.1361624 C22.1328232,22.9249874 21.5464976,23.5663002 20.8253075,23.5663002 Z" id="Shape" fill="#32C27D"></path>
                        </g>
                    </g>
                </g>
            </g>
        </g>
    </g>
</svg>