<?xml version="1.0" encoding="UTF-8"?>
<svg width="16px" height="16px" viewBox="0 0 16 16" version="1.1" xmlns="http://www.w3.org/2000/svg" xmlns:xlink="http://www.w3.org/1999/xlink">
    <!-- Generator: Sketch 50 (54983) - http://www.bohemiancoding.com/sketch -->
    <title>质量</title>
    <desc>Created with Sketch.</desc>
    <defs></defs>
    <g id="PC端页面" stroke="none" stroke-width="1" fill="none" fill-rule="evenodd">
        <g id="资料管理-文件-缩略" transform="translate(-376.000000, -579.000000)" fill="#409EFF">
            <g id="侧边栏" transform="translate(360.000000, 97.000000)">
                <g id="质量" transform="translate(16.000000, 482.000000)">
                    <path d="M7.49442366,8.71320425 L5.87817959,7.09696018 C5.58063727,6.79941786 5.09822586,6.79941786 4.80068354,7.09696018 C4.50314122,7.39450249 4.50314122,7.87691391 4.80068354,8.17445622 L6.95567563,10.3294483 C7.10444679,10.4782195 7.29943523,10.5526051 7.49442366,10.5526051 C7.68941209,10.5526051 7.88440052,10.4782195 8.03317168,10.3294483 L11.8044078,6.55821215 C12.1019502,6.26066983 12.1019502,5.77825842 11.8044078,5.4807161 C11.5068655,5.18317379 11.0244541,5.18317379 10.7269118,5.4807161 L7.49442366,8.71320425 Z M8.38545277,0.0125892299 L15.9529291,3.08695505 C16.1723478,9.78768293 13.6498557,13.8422594 8.38545277,15.2506845 C2.9451673,13.7593407 0.403696702,9.70476425 0.761040986,3.08695505 L8.38545277,0.0125892299 Z" id="Combined-Shape"></path>
                </g>
            </g>
        </g>
    </g>
</svg>