<?xml version="1.0" encoding="UTF-8"?>
<svg width="16px" height="16px" viewBox="0 0 16 16" version="1.1" xmlns="http://www.w3.org/2000/svg" xmlns:xlink="http://www.w3.org/1999/xlink">
    <!-- Generator: Sketch 50 (54983) - http://www.bohemiancoding.com/sketch -->
    <title>资料</title>
    <desc>Created with Sketch.</desc>
    <defs></defs>
    <g id="PC端页面" stroke="none" stroke-width="1" fill="none" fill-rule="evenodd">
        <g id="资料管理-文件-缩略" transform="translate(-376.000000, -785.000000)">
            <g id="侧边栏" transform="translate(360.000000, 97.000000)">
                <g id="资料" transform="translate(16.000000, 688.000000)">
                    <rect id="Rectangle-8" stroke="#409EFF" fill="#FFFFFF" x="0.5" y="2.9" width="3.8" height="10.2" rx="1"></rect>
                    <rect id="Rectangle-8" stroke="#409EFF" fill="#FFFFFF" x="2.1" y="2.1" width="3.8" height="11.8" rx="1"></rect>
                    <rect id="Rectangle-8" fill="#409EFF" x="4" y="0" width="12" height="16" rx="1"></rect>
                    <path d="M6.31604126,2.35809698 L10.0184651,2.35809698 L10.0184651,5.10738056 L6.31604126,5.10738056 L6.31604126,2.35809698 Z M5.95803186,5.86533498 L10.3764969,5.86533498 C10.5742586,5.86533498 10.7345063,5.6955437 10.7345064,5.48657161 L10.7345961,1.9790485 C10.7345961,1.76976755 10.5742361,1.60000002 10.3764969,1.6 L5.95803186,1.6 C5.76040493,1.6 5.6,1.76979128 5.6,1.97921482 L5.6,5.48657161 C5.6,5.69556743 5.76040491,5.86533498 5.95803186,5.86533498 Z M5.95803186,8.1768583 L14.0418559,8.1768583 C14.2395951,8.1768583 14.4,8.00730462 14.4,7.79802367 C14.4,7.58874271 14.2395726,7.41911775 14.0418559,7.41911773 L5.95803186,7.41911773 C5.76040493,7.41911773 5.6,7.58874269 5.6,7.79802367 C5.6,8.00730464 5.76040491,8.17711968 5.95803186,8.1768583 Z M5.95803186,10.488548 L14.0418559,10.488548 C14.2395951,10.488548 14.4,10.3187567 14.4,10.1093569 C14.4,9.90019478 14.2395726,9.730451 14.0418559,9.73045098 L5.95803186,9.73045098 C5.76040493,9.73045098 5.6,9.90021851 5.6,10.1093569 C5.6,10.3187804 5.76040491,10.488548 5.95803186,10.488548 Z M5.95803186,12.8 L14.0418559,12.8 C14.2395951,12.8 14.4,12.6305176 14.4,12.4210941 C14.4,12.2119557 14.2395726,12.0424495 14.0418559,12.0424495 L5.95803186,12.0424495 C5.76040493,12.0424495 5.6,12.2119557 5.6,12.4210941 C5.6,12.6305176 5.76040491,12.8 5.95803186,12.8 Z" id="Shape" fill="#FFFFFF" fill-rule="nonzero"></path>
                </g>
            </g>
        </g>
    </g>
</svg>