<?xml version="1.0" standalone="no"?><!DOCTYPE svg PUBLIC "-//W3C//DTD SVG 1.1//EN" "http://www.w3.org/Graphics/SVG/1.1/DTD/svg11.dtd"><svg t="1524805263310" class="icon" style="" viewBox="0 0 1024 1024" version="1.1" xmlns="http://www.w3.org/2000/svg" p-id="2540" xmlns:xlink="http://www.w3.org/1999/xlink" width="200" height="200"><defs><style type="text/css"></style></defs><path d="M512 0A512 512 0 0 0 0 512a511.963875 511.963875 0 0 0 512 512 511.963875 511.963875 0 0 0 512-512A512 512 0 0 0 512 0z m310.133352 356.951386l-372.087772 372.087773a43.928032 43.928032 0 0 1-62.026671 0l-186.080011-186.043886a44.000282 44.000282 0 0 1 0-62.026671 44.000282 44.000282 0 0 1 62.02667 0l155.012489 155.156989 341.128625-341.128625a44.000282 44.000282 0 0 1 62.02667 0 44.000282 44.000282 0 0 1 0 61.95442z" fill="" p-id="2541"></path></svg>